<?xml version="1.0" standalone="no"?>
<!DOCTYPE svg PUBLIC "-//W3C//DTD SVG 20010904//EN"
 "http://www.w3.org/TR/2001/REC-SVG-20010904/DTD/svg10.dtd">
<svg version="1.0" xmlns="http://www.w3.org/2000/svg"
 width="1024.000000pt" height="1024.000000pt" viewBox="0 0 1024.000000 1024.000000"
 preserveAspectRatio="xMidYMid meet">

<g transform="translate(0.000000,1024.000000) scale(0.100000,-0.100000)"
fill="#000000" stroke="none">
<path d="M4722 10216 c24 -21 31 -23 74 -15 27 5 55 16 63 24 14 13 5 15 -74
15 l-90 -1 27 -23z"/>
<path d="M4520 10180 c-19 -11 -69 -34 -110 -51 -75 -31 -119 -69 -120 -101 0
-26 35 -22 53 5 16 24 66 53 109 61 15 4 34 13 42 21 8 9 32 17 52 19 37 3 54
18 54 49 0 23 -35 22 -80 -3z"/>
<path d="M5570 10170 c0 -12 40 -34 47 -26 9 8 -17 36 -33 36 -8 0 -14 -4 -14
-10z"/>
<path d="M4179 9975 c-19 -13 -51 -36 -71 -49 -20 -14 -39 -34 -43 -45 -3 -10
-23 -30 -45 -45 -22 -14 -46 -39 -55 -55 l-15 -30 31 13 c17 7 53 42 82 81 29
37 66 75 82 84 64 36 95 58 88 64 -10 11 -18 8 -54 -18z"/>
<path d="M3918 9718 c-10 -12 -18 -27 -18 -33 1 -12 40 33 40 46 0 13 -3 11
-22 -13z"/>
<path d="M3929 9477 c-9 -7 -24 -28 -34 -47 -10 -19 -33 -56 -51 -82 -34 -50
-120 -221 -149 -298 -10 -25 -24 -59 -31 -77 -8 -17 -14 -39 -14 -50 0 -10 -9
-35 -20 -56 -11 -20 -20 -50 -20 -66 0 -16 -7 -45 -15 -64 -8 -20 -15 -49 -15
-65 0 -15 -9 -45 -20 -67 -12 -23 -20 -59 -20 -87 0 -27 -7 -65 -15 -85 -16
-39 -22 -253 -6 -253 10 0 21 74 21 150 0 31 7 79 16 106 9 27 20 81 24 119
11 90 34 182 54 220 9 17 16 40 16 53 0 20 50 159 86 237 7 17 23 54 34 83 17
45 50 109 114 227 7 11 24 40 39 63 30 47 32 58 6 39z"/>
<path d="M3626 9281 c-23 -43 -19 -52 5 -13 12 18 19 35 16 38 -3 3 -13 -8
-21 -25z"/>
<path d="M3580 9189 c-7 -11 -10 -23 -7 -25 2 -2 9 7 15 21 14 30 7 33 -8 4z"/>
<path d="M3547 9123 c-4 -3 -7 -13 -7 -22 1 -13 3 -13 11 2 11 19 8 33 -4 20z"/>
<path d="M3485 8977 c-33 -70 -47 -135 -25 -122 5 3 14 25 20 48 6 23 15 51
21 62 13 27 29 85 23 85 -2 0 -20 -33 -39 -73z"/>
<path d="M3412 8755 c-31 -68 -62 -198 -61 -258 1 -125 29 -123 54 4 20 107
31 209 25 249 l-5 34 -13 -29z"/>
<path d="M3327 8143 c-11 -10 -8 -53 3 -53 6 0 10 14 10 30 0 31 -2 35 -13 23z"/>
<path d="M3497 8083 c-11 -11 -8 -261 3 -268 6 -4 10 43 10 134 0 78 -1 141
-3 141 -2 0 -7 -3 -10 -7z"/>
<path d="M3327 7804 c-12 -13 -7 -107 8 -158 10 -32 15 -91 15 -167 0 -84 6
-142 21 -206 24 -101 61 -218 82 -260 8 -15 27 -64 42 -108 14 -44 42 -108 61
-143 19 -34 44 -86 57 -115 12 -29 37 -77 55 -107 18 -30 50 -83 70 -117 20
-35 64 -98 97 -140 75 -96 292 -312 365 -364 30 -21 73 -51 95 -67 88 -61 131
-80 210 -92 44 -7 91 -20 105 -30 39 -27 106 -47 215 -65 55 -8 119 -20 143
-25 64 -15 126 -12 237 10 55 11 138 27 184 35 59 10 91 21 108 37 23 22 23
22 4 30 -13 4 -73 -7 -158 -29 -129 -33 -147 -35 -280 -34 -112 2 -153 6 -197
21 -30 11 -74 20 -96 20 -40 0 -101 30 -129 64 -17 20 -37 21 -45 0 -3 -9 -11
-12 -18 -8 -7 5 -26 7 -42 6 -17 -2 -38 5 -50 17 -12 10 -50 33 -86 51 -66 32
-76 39 -211 141 -103 79 -339 314 -339 338 0 5 -11 23 -25 39 -13 16 -33 49
-43 73 -11 24 -30 58 -44 74 -13 17 -35 48 -48 70 -13 22 -38 63 -56 90 -17
28 -48 91 -69 140 -20 50 -45 110 -56 135 -20 46 -49 174 -49 213 0 12 -10 40
-21 62 -24 45 -64 260 -80 428 -11 113 -20 153 -32 141z"/>
<path d="M6702 7767 c-7 -17 -12 -73 -11 -135 1 -83 3 -100 10 -77 5 17 7 47
4 68 -3 21 0 55 6 75 6 21 9 51 7 67 l-4 30 -12 -28z"/>
<path d="M3510 7658 c0 -46 6 -101 13 -123 l12 -40 3 60 c4 76 -7 185 -19 185
-5 0 -9 -37 -9 -82z"/>
<path d="M6668 7450 c-4 -14 -8 -36 -8 -50 1 -22 2 -23 11 -7 6 9 9 32 7 50
-3 31 -3 31 -10 7z"/>
<path d="M3554 7401 c2 -35 9 -68 15 -74 17 -17 13 84 -5 113 -14 24 -15 22
-10 -39z"/>
<path d="M6636 7295 c-4 -17 -18 -43 -30 -60 -21 -28 -45 -94 -91 -250 -39
-131 -208 -448 -326 -608 -45 -61 -94 -128 -108 -147 -39 -54 -184 -196 -208
-204 -20 -6 -60 -72 -50 -83 9 -8 48 17 91 60 23 23 61 53 85 67 23 14 66 53
94 88 28 34 54 62 58 62 4 0 34 37 68 83 34 45 81 107 105 137 63 79 123 176
137 218 6 20 24 62 39 92 60 120 100 249 116 368 8 64 19 132 25 150 6 18 9
38 6 45 -2 6 -7 -2 -11 -18z"/>
<path d="M3631 7118 c0 -7 4 -22 9 -33 8 -18 9 -17 9 7 1 15 -3 30 -9 33 -5 3
-10 0 -9 -7z"/>
<path d="M8451 5927 c-6 -8 -14 -28 -17 -45 -4 -17 -15 -39 -25 -48 -23 -21
-24 -43 -4 -91 13 -32 17 -35 30 -22 7 8 20 39 27 69 13 51 17 55 48 60 43 6
58 30 42 64 -10 22 -18 26 -51 26 -21 0 -44 -6 -50 -13z"/>
<path d="M5662 5853 l-27 -28 24 -3 c16 -3 34 6 55 27 l31 31 -28 0 c-17 0
-38 -11 -55 -27z"/>
<path d="M8336 5852 c-3 -6 -1 -14 5 -17 15 -10 25 3 12 16 -7 7 -13 7 -17 1z"/>
<path d="M5560 5791 c-14 -27 -13 -31 8 -31 10 0 29 11 42 25 l23 25 -31 0
c-21 0 -35 -7 -42 -19z"/>
<path d="M7205 5636 c-33 -18 -71 -36 -84 -41 -30 -9 -115 -70 -169 -120 -57
-52 -112 -135 -141 -210 -12 -33 -33 -87 -47 -120 -13 -33 -24 -73 -24 -89 0
-16 -11 -83 -24 -150 -14 -66 -28 -141 -31 -165 -4 -24 -17 -64 -28 -90 -17
-37 -22 -67 -23 -151 -2 -135 -13 -247 -26 -283 -6 -16 -21 -33 -34 -37 -14
-6 -25 -21 -29 -40 -9 -41 7 -60 35 -42 18 11 22 8 40 -28 16 -31 20 -56 18
-122 -1 -48 3 -92 10 -105 8 -13 12 -71 12 -153 0 -104 -4 -142 -20 -187 -11
-31 -16 -61 -13 -67 4 -6 8 -65 10 -131 1 -108 -1 -127 -24 -184 -17 -44 -23
-74 -19 -95 4 -17 11 -53 17 -81 6 -27 14 -97 19 -155 5 -58 14 -132 19 -165
6 -33 17 -113 25 -178 8 -65 19 -132 25 -150 6 -18 15 -72 21 -121 6 -49 17
-100 24 -115 13 -25 38 -192 39 -256 0 -16 -6 -55 -13 -85 -15 -62 -15 -126 0
-165 9 -23 14 -25 44 -20 32 7 35 5 82 -67 56 -85 229 -260 297 -301 26 -16
61 -33 79 -39 46 -15 215 -9 257 8 49 21 218 197 227 237 3 18 19 57 34 87 15
30 35 78 43 106 8 27 29 78 46 112 17 34 31 66 31 72 0 6 9 30 19 53 11 23 22
60 26 82 3 22 15 69 25 105 103 348 129 505 105 642 -7 42 -5 49 17 70 34 33
48 89 53 227 4 102 8 128 27 161 22 38 22 38 3 60 -16 18 -21 40 -24 113 -2
50 2 114 7 142 6 27 16 75 22 105 10 47 10 62 -4 94 -9 21 -16 56 -16 79 0 22
-9 54 -20 72 -13 21 -23 59 -26 102 -3 37 -10 79 -15 93 -4 14 -13 99 -18 190
-8 131 -14 175 -30 212 -12 26 -23 68 -25 95 -5 51 -22 132 -38 172 -15 39
-58 260 -58 297 0 45 -18 119 -41 170 -11 23 -19 50 -19 60 0 10 -7 42 -16 69
-8 28 -20 77 -25 110 -11 64 -31 95 -61 95 -10 0 -21 7 -25 15 -6 17 -140 125
-154 125 -5 0 -31 15 -57 34 -30 21 -66 36 -97 40 -28 5 -65 14 -84 22 -52 22
-91 17 -156 -20z m203 -617 c17 -6 34 -19 37 -30 5 -14 16 -19 41 -19 19 0 36
-6 38 -12 2 -7 23 -72 46 -145 41 -127 42 -135 33 -195 -12 -70 -10 -76 52
-183 19 -33 40 -71 45 -85 6 -14 20 -43 30 -65 19 -40 18 -76 -3 -103 -6 -8
-12 -68 -13 -135 -1 -67 -5 -156 -9 -198 -6 -61 -3 -89 11 -135 11 -36 19 -95
20 -154 1 -52 3 -108 3 -125 1 -16 -2 -84 -7 -150 -6 -90 -13 -131 -30 -165
-12 -25 -22 -52 -22 -61 0 -9 -13 -49 -30 -88 -24 -60 -29 -86 -30 -159 0 -48
-1 -100 -1 -117 0 -16 4 -66 8 -110 11 -95 4 -139 -41 -265 -18 -52 -39 -120
-46 -150 -6 -30 -31 -110 -53 -178 -37 -110 -46 -127 -82 -156 -37 -31 -45
-33 -94 -28 -49 4 -55 8 -85 49 -30 41 -61 129 -96 268 -27 107 -29 130 -18
186 10 51 9 60 -9 91 -26 44 -48 124 -62 218 -6 41 -14 94 -19 117 -7 30 -6
50 3 66 21 40 26 202 8 271 -11 43 -13 81 -9 131 8 84 8 60 -3 230 -10 157 -7
767 3 784 19 30 38 136 40 224 1 58 7 102 14 109 7 7 12 18 12 26 0 8 9 26 21
40 18 23 19 35 14 85 -6 48 -3 66 13 100 12 23 30 62 41 87 16 35 31 50 68 70
27 13 61 34 76 47 32 26 41 27 85 12z m-606 -1811 c3 -24 1 -53 -4 -66 -4 -13
-8 -37 -8 -53 0 -25 6 -32 43 -48 58 -25 112 -88 131 -152 22 -74 21 -84 -19
-124 -39 -38 -69 -44 -113 -21 -73 38 -116 119 -106 196 5 38 3 56 -11 76 -28
43 -17 128 23 187 41 59 59 60 64 5z m847 -1522 c24 -26 37 -81 27 -121 -14
-55 -92 -97 -113 -61 -14 23 -47 35 -66 25 -25 -15 -37 -3 -37 37 0 24 5 36
18 40 9 3 37 14 60 25 32 14 42 24 38 36 -8 19 11 43 33 43 10 0 27 -11 40
-24z m-109 -7 c0 -5 -9 -9 -20 -9 -22 0 -27 16 -7 23 15 5 27 -1 27 -14z
m-143 -81 c40 -37 26 -107 -18 -93 -30 9 -39 23 -39 57 0 60 19 72 57 36z"/>
<path d="M7060 4091 c-13 -32 -7 -51 16 -51 17 0 37 47 30 67 -9 23 -33 14
-46 -16z"/>
<path d="M7670 3550 c0 -5 5 -10 10 -10 6 0 10 5 10 10 0 6 -4 10 -10 10 -5 0
-10 -4 -10 -10z"/>
<path d="M6760 3144 c0 -14 4 -23 10 -19 6 3 10 15 10 26 0 10 -4 19 -10 19
-5 0 -10 -12 -10 -26z"/>
<path d="M9256 5648 c-27 -38 -14 -78 24 -78 25 0 60 43 60 73 0 24 -4 27 -34
27 -25 0 -39 -7 -50 -22z"/>
<path d="M8662 5625 c-17 -14 -35 -25 -41 -25 -6 0 -11 -17 -11 -40 0 -29 -5
-42 -19 -50 -28 -15 -77 -12 -112 5 -25 14 -35 14 -70 2 -34 -12 -44 -22 -64
-65 -38 -82 -46 -146 -28 -222 8 -36 14 -81 13 -100 -8 -151 -5 -323 7 -382
10 -44 11 -73 5 -85 -11 -21 -7 -173 8 -293 6 -47 10 -117 9 -155 -1 -39 0
-126 3 -195 7 -168 -13 -360 -42 -395 -16 -19 -8 -75 26 -174 28 -82 27 -109
-8 -189 -37 -85 -50 -144 -44 -191 3 -24 10 -49 15 -55 29 -36 49 -236 28
-283 -8 -18 -6 -27 8 -43 21 -23 23 -66 10 -228 -4 -52 -2 -238 5 -415 17
-428 16 -422 30 -500 9 -52 9 -79 1 -114 -20 -78 3 -161 55 -202 29 -23 46
-22 101 7 30 15 33 15 52 -2 16 -15 25 -16 56 -7 30 8 44 7 67 -5 37 -19 101
-22 122 -5 20 17 20 44 1 81 -9 18 -17 69 -20 132 -3 57 -8 130 -11 163 -3 33
0 87 6 120 20 100 23 176 10 250 -14 82 -2 148 30 165 13 7 20 21 20 41 0 36
-25 49 -45 23 -7 -11 -17 -15 -22 -11 -8 9 -15 166 -14 342 0 60 -4 124 -11
141 -9 24 -8 39 1 61 9 21 9 42 2 74 -7 32 -6 62 4 114 8 39 15 84 17 100 2
24 8 31 30 33 22 3 30 -2 40 -25 6 -15 23 -40 36 -55 18 -20 26 -43 32 -98 5
-45 14 -78 25 -90 12 -13 24 -60 36 -132 10 -62 24 -132 31 -156 11 -37 10
-50 -5 -91 -22 -64 -22 -69 13 -115 17 -22 30 -44 30 -50 0 -6 14 -23 31 -37
28 -22 34 -38 54 -135 13 -60 32 -137 41 -171 15 -51 16 -70 7 -103 -15 -60
17 -164 58 -186 44 -22 58 -52 56 -116 -2 -62 5 -78 30 -62 18 11 23 20 43 69
11 29 12 29 26 10 8 -10 14 -34 14 -52 0 -19 6 -44 14 -56 8 -12 17 -38 20
-57 10 -54 21 -67 41 -50 15 13 20 11 41 -13 18 -22 24 -40 24 -78 0 -56 13
-64 29 -18 9 27 14 30 43 27 34 -3 33 -2 56 -88 10 -33 76 -49 103 -24 15 14
23 15 47 5 16 -7 40 -9 55 -6 16 4 34 1 52 -11 23 -15 28 -15 36 -3 4 8 6 30
3 49 -7 45 10 90 34 90 23 0 47 25 61 63 10 27 34 36 46 17 9 -15 45 7 45 28
0 9 -7 26 -15 36 -8 11 -15 32 -15 47 0 18 -6 30 -19 34 -30 9 -45 63 -25 92
11 18 14 36 9 64 -5 31 -3 45 10 59 23 26 13 70 -16 70 -11 0 -29 -10 -39 -22
-10 -13 -20 -21 -22 -18 -16 19 -56 100 -62 123 -7 30 -38 47 -85 47 -22 0
-35 10 -61 48 -18 26 -50 65 -70 87 -21 22 -44 53 -51 70 -8 17 -24 32 -39 35
-24 6 -25 10 -30 90 -5 78 -7 86 -30 97 -36 18 -50 42 -50 88 0 29 -6 47 -20
60 -12 11 -20 31 -20 50 0 17 -5 36 -11 42 -28 28 -52 244 -29 258 20 12 11
62 -15 79 -28 18 -30 34 -13 83 11 31 10 39 -14 82 -15 26 -32 77 -38 114 -6
37 -22 93 -36 125 -41 93 -65 189 -53 219 7 20 5 30 -15 54 -49 57 -43 107 9
79 33 -17 43 -7 47 49 3 40 6 45 33 53 38 10 55 33 55 75 0 23 10 44 34 70 18
21 59 88 91 148 69 130 96 175 119 194 10 9 16 29 16 58 0 44 23 92 59 121 12
10 15 38 16 145 1 129 0 134 -32 204 -20 42 -33 88 -33 111 0 25 -8 49 -21 66
-14 18 -24 50 -29 89 -9 79 -23 112 -60 144 -24 20 -30 33 -30 64 0 57 -32
114 -71 128 -18 6 -40 17 -48 25 -35 29 -108 49 -191 52 -78 2 -86 5 -105 28
-19 24 -27 26 -106 27 -47 1 -94 -3 -105 -8 -10 -5 -52 -8 -92 -7 -93 3 -112
17 -112 83 0 48 -17 84 -50 101 -14 8 -25 4 -48 -15z m42 -230 c15 -14 26 -35
26 -50 0 -30 -2 -31 -57 -4 -44 21 -54 44 -31 67 18 18 32 15 62 -13z m-34
-134 c31 -26 34 -32 25 -57 -7 -19 -20 -30 -43 -36 -38 -10 -40 -26 -11 -92
18 -42 20 -63 17 -175 -3 -122 -4 -129 -31 -164 -30 -40 -92 -77 -128 -77 -13
0 -40 18 -64 43 l-42 44 2 149 c2 82 7 161 13 176 20 48 194 219 222 218 3 0
21 -14 40 -29z m366 -323 c10 -11 49 -41 87 -65 l67 -44 0 -52 c0 -29 6 -59
12 -65 19 -19 29 -201 13 -232 -7 -14 -16 -52 -20 -85 -6 -46 -14 -65 -35 -85
-15 -14 -30 -35 -34 -47 -9 -29 -41 -35 -93 -17 -43 15 -46 14 -67 -5 -28 -26
-41 -26 -73 -1 -14 11 -41 20 -59 20 -23 0 -37 6 -44 20 -22 41 -36 556 -16
588 12 20 102 62 133 62 15 1 39 7 53 15 35 20 54 18 76 -7z m-10 -926 c23
-16 23 -40 -1 -46 -21 -5 -23 -11 -22 -51 2 -45 -13 -73 -32 -61 -15 10 -13
47 4 70 8 11 15 34 15 51 0 42 12 54 36 37z m-74 -327 c9 -21 8 -41 -5 -97
-14 -57 -15 -73 -5 -80 20 -12 34 -10 52 11 22 24 40 19 84 -23 54 -50 69 -84
76 -169 5 -69 4 -79 -14 -97 -25 -25 -29 -25 -93 6 -56 28 -82 59 -110 135
-19 50 -79 115 -96 104 -6 -3 -20 -23 -31 -44 -41 -81 -123 -127 -212 -119
-67 7 -81 24 -86 101 -4 63 10 108 50 158 40 50 177 76 238 44 32 -17 34 -17
47 1 8 11 17 32 20 47 4 17 11 26 19 23 7 -3 15 2 18 10 9 22 35 16 48 -11z"/>
<path d="M3983 5470 c-56 -44 -64 -46 -92 -28 -16 10 -24 7 -51 -15 -33 -29
-55 -34 -65 -16 -4 6 -19 9 -33 8 -30 -3 -83 7 -124 23 -24 9 -30 6 -57 -21
-40 -41 -47 -72 -27 -124 9 -24 16 -65 16 -92 0 -28 4 -64 9 -81 5 -17 12
-184 16 -370 3 -186 10 -367 15 -401 4 -34 4 -76 0 -95 -32 -122 -32 -110 10
-363 10 -59 12 -102 10 -259 -1 -23 -11 -57 -26 -81 -23 -39 -24 -49 -18 -131
5 -70 12 -101 34 -144 28 -54 28 -58 34 -285 4 -126 12 -282 18 -345 9 -100 8
-120 -6 -154 -20 -48 -20 -92 -1 -192 18 -98 35 -322 28 -389 -2 -27 -15 -72
-28 -100 -21 -46 -23 -58 -16 -140 6 -73 12 -97 32 -124 19 -27 24 -43 22 -87
-3 -51 8 -71 21 -39 9 24 36 17 46 -11 6 -14 9 -50 8 -79 -2 -39 2 -59 15 -73
22 -25 21 -43 -3 -70 -48 -51 -89 -8 -69 72 8 31 8 54 -1 85 -10 37 -13 41
-36 35 -13 -3 -30 -1 -38 5 -25 21 -40 -16 -43 -98 -1 -67 2 -80 23 -108 27
-36 39 -81 26 -101 -7 -10 -16 -9 -46 3 -21 9 -45 14 -52 11 -20 -8 -17 -39 6
-69 11 -14 20 -39 20 -56 0 -24 7 -34 30 -46 41 -21 55 -19 90 12 22 21 33 42
40 83 9 46 17 61 53 92 23 21 49 36 57 35 8 -1 20 -18 26 -37 6 -19 16 -36 23
-38 18 -6 33 49 27 99 -4 30 -1 58 8 80 14 34 16 35 65 33 32 -1 55 4 62 12
16 19 103 18 141 -2 32 -16 32 -18 12 -96 -10 -43 10 -33 34 17 32 66 70 56
56 -15 -4 -16 -3 -37 1 -47 5 -15 10 -11 26 21 10 22 19 50 19 62 0 34 -18 74
-33 74 -28 0 -48 36 -47 86 0 42 -3 91 -9 142 0 8 -11 12 -25 10 -29 -4 -106
69 -106 100 0 12 -7 47 -15 79 -8 32 -15 87 -15 123 0 160 -8 388 -15 421 -4
20 -3 44 2 53 5 9 5 52 1 98 -5 64 -4 94 8 130 19 58 15 160 -15 368 -26 184
-26 173 8 212 27 31 84 56 161 72 28 6 181 166 225 236 16 25 53 71 84 103 75
79 121 145 177 252 25 50 50 95 55 101 5 6 20 42 35 80 14 38 33 83 43 99 10
17 16 38 14 48 -3 9 4 32 15 50 33 54 36 105 41 690 0 26 -6 69 -14 95 -8 26
-15 56 -15 67 0 33 -70 164 -111 208 -31 32 -49 35 -49 8 0 -11 -4 -23 -10
-26 -12 -8 -60 24 -60 39 0 7 -11 22 -25 34 -14 12 -25 33 -25 46 0 32 -15 42
-85 55 -40 7 -65 18 -76 32 -14 19 -16 19 -29 4 -17 -21 -65 -11 -100 19 -42
37 -79 49 -112 35 -22 -9 -32 -9 -41 0 -6 6 -34 11 -62 11 -28 0 -55 4 -61 10
-6 6 -28 -5 -61 -30z m223 -465 c16 -25 66 -35 78 -16 8 12 80 24 103 17 10
-3 24 -19 30 -35 9 -25 17 -30 49 -33 l39 -3 -3 -72 c-3 -62 0 -77 17 -99 14
-18 21 -41 21 -69 0 -28 7 -51 21 -69 16 -20 20 -35 15 -59 -3 -18 -9 -59 -15
-92 -5 -33 -14 -73 -20 -88 -6 -16 -11 -43 -11 -62 0 -19 -4 -45 -10 -59 -12
-32 -77 -97 -112 -113 -22 -10 -29 -22 -34 -54 -4 -22 -15 -48 -24 -57 -10
-10 -34 -43 -54 -74 -27 -43 -42 -58 -60 -58 -14 0 -27 -9 -33 -23 -6 -12 -30
-36 -54 -52 -24 -16 -60 -42 -81 -57 -56 -44 -68 -32 -70 71 -2 129 2 181 19
231 8 25 19 103 24 174 8 111 7 132 -6 153 -21 31 -32 252 -15 284 18 33 14
83 -10 126 -19 32 -22 47 -16 86 9 58 27 77 73 77 23 0 45 9 65 25 16 14 36
25 44 25 7 0 21 -11 30 -25z m-326 -1270 c16 -8 38 -29 51 -46 20 -28 25 -30
63 -25 93 14 205 -31 253 -103 34 -50 32 -130 -4 -202 -34 -65 -64 -80 -121
-59 -45 16 -117 77 -150 128 -14 20 -34 47 -45 59 l-20 22 -39 -44 c-49 -55
-84 -60 -121 -16 -31 38 -44 119 -24 158 8 16 20 51 27 80 14 55 10 52 88 61
7 1 26 -5 42 -13z m330 -2250 c0 -8 -2 -15 -4 -15 -2 0 -6 7 -10 15 -3 8 -1
15 4 15 6 0 10 -7 10 -15z m-374 -86 c10 -17 -13 -36 -27 -22 -12 12 -4 33 11
33 5 0 12 -5 16 -11z"/>
<path d="M5152 5483 c-57 -7 -66 -44 -64 -268 1 -104 2 -251 2 -325 0 -74 5
-170 10 -214 8 -64 7 -89 -7 -135 -13 -48 -14 -69 -5 -146 22 -173 24 -210 12
-260 -6 -27 -15 -86 -20 -130 -7 -68 -12 -82 -34 -100 -31 -25 -37 -72 -7 -56
32 17 45 -13 55 -123 8 -97 9 -178 5 -441 -2 -164 8 -394 20 -425 14 -37 31
-126 31 -163 0 -18 -9 -43 -20 -57 -11 -14 -20 -40 -20 -59 0 -19 -9 -53 -21
-76 l-21 -42 22 -44 c13 -24 34 -58 47 -75 20 -27 24 -45 28 -132 4 -85 8
-107 26 -132 21 -27 23 -43 25 -187 6 -283 6 -290 47 -375 41 -87 94 -151 146
-178 20 -10 53 -36 74 -59 28 -31 45 -41 68 -41 16 0 44 -7 61 -16 23 -12 57
-16 132 -15 115 1 133 5 141 31 8 25 50 36 70 20 8 -7 27 -39 42 -72 35 -78
51 -89 106 -73 l42 12 0 71 c0 59 -4 74 -22 94 -13 14 -23 35 -23 49 1 35 51
103 80 107 13 2 32 15 43 28 26 33 51 30 68 -8 21 -47 34 -44 46 9 13 53 6 69
-35 84 -21 8 -24 14 -18 41 3 17 14 40 23 50 11 12 16 33 15 58 -2 22 2 48 7
59 6 10 13 117 16 237 3 121 9 249 15 286 5 38 9 130 9 205 0 76 4 168 9 204
5 37 6 89 1 115 -6 38 -4 57 10 84 22 43 38 113 46 202 5 52 3 73 -10 99 -14
25 -17 58 -16 163 1 72 -1 181 -4 241 -9 169 -6 311 10 405 7 44 -7 60 -34 36
-10 -9 -23 -16 -29 -16 -16 0 -48 45 -82 116 -16 35 -32 64 -34 64 -2 0 -16
-20 -30 -45 -29 -48 -65 -66 -91 -45 -19 16 -19 38 1 108 21 72 41 111 68 133
19 16 21 27 21 122 0 58 3 108 7 112 21 22 87 -67 88 -119 0 -14 -5 -17 -25
-12 -20 5 -25 3 -25 -13 0 -11 -8 -33 -17 -50 -16 -28 -16 -33 -3 -41 8 -5 27
-10 42 -10 19 0 37 -12 62 -42 20 -23 36 -47 36 -54 0 -20 22 -64 32 -64 12 0
10 59 -7 145 -13 69 -13 81 1 114 24 56 35 248 17 287 -22 49 -30 145 -22 265
3 45 0 61 -14 77 -15 17 -18 29 -11 64 9 52 8 142 -3 258 l-8 85 -34 3 c-51 5
-77 -5 -121 -44 -35 -32 -44 -35 -76 -29 -32 6 -41 3 -70 -26 -22 -21 -34 -42
-34 -60 0 -14 -7 -46 -15 -70 -18 -50 -13 -120 14 -209 32 -103 8 -480 -30
-480 -20 0 -49 -41 -49 -69 0 -40 19 -49 40 -21 9 13 22 20 27 17 19 -12 33
-96 32 -184 -1 -49 4 -107 10 -130 7 -24 12 -95 12 -158 0 -92 -4 -128 -21
-180 -16 -48 -19 -69 -11 -83 6 -11 8 -42 4 -70 -4 -35 0 -63 12 -95 19 -49
15 -75 -18 -118 -16 -22 -18 -36 -13 -72 4 -25 14 -51 21 -57 19 -16 20 -79 1
-86 -23 -9 -27 -33 -10 -65 23 -45 23 -263 1 -309 -21 -41 -21 -67 -1 -116 19
-46 13 -94 -15 -131 -18 -22 -21 -40 -21 -125 0 -83 -4 -108 -25 -158 -29 -70
-29 -65 -10 -84 12 -12 13 -23 4 -63 -9 -38 -8 -60 3 -103 22 -83 3 -183 -40
-219 -30 -24 -32 -30 -32 -89 l0 -63 -38 2 c-27 2 -49 -4 -71 -20 -81 -58
-191 39 -191 168 0 18 -7 45 -15 61 -9 17 -13 40 -10 52 3 13 -4 79 -15 148
-12 69 -25 159 -31 200 -5 41 -12 82 -15 90 -4 8 -8 98 -10 200 -1 102 -7 205
-13 230 -14 61 -14 216 1 256 9 26 9 39 -2 61 -17 36 -53 491 -51 658 0 22 0
119 0 215 0 96 1 191 2 210 0 19 2 94 3 167 1 75 7 137 13 145 13 16 30 100
38 196 5 58 3 79 -9 97 -22 33 -31 194 -14 257 11 44 10 52 -10 93 -31 64 -29
107 8 148 17 19 30 39 30 45 0 14 -58 62 -76 62 -8 0 -40 -14 -69 -30 -51 -28
-57 -30 -82 -16 -16 8 -36 24 -45 35 -10 12 -21 20 -25 19 -5 0 -23 -3 -41 -5z"/>
<path d="M1435 5440 c-10 -11 -30 -20 -45 -20 -60 0 -93 -75 -46 -105 45 -30
51 -67 43 -275 -1 -47 -6 -90 -10 -97 -4 -6 2 -39 14 -72 18 -54 20 -77 15
-193 -11 -300 -27 -428 -53 -428 -4 0 -14 7 -24 16 -23 21 -39 10 -39 -26 0
-21 8 -35 26 -46 40 -27 56 -70 65 -182 6 -81 5 -119 -7 -169 -14 -62 -14 -66
7 -101 20 -35 22 -51 32 -237 1 -25 -7 -56 -21 -83 -26 -50 -28 -82 -6 -124
13 -25 14 -38 5 -72 -7 -29 -7 -54 0 -79 9 -33 5 -48 -31 -139 -23 -56 -46
-110 -51 -120 -15 -27 -32 -22 -26 8 5 26 -14 54 -38 54 -20 0 -55 63 -55 99
0 17 5 50 12 75 10 40 9 48 -15 93 -14 28 -31 79 -38 114 -6 35 -17 83 -25
107 -11 36 -11 48 2 79 14 34 14 40 -5 90 -12 30 -21 62 -21 70 0 27 -61 147
-85 168 -19 16 -24 33 -28 93 -3 41 -10 79 -15 85 -6 7 -13 32 -17 55 -4 28
-16 52 -31 65 -22 19 -24 27 -19 72 5 38 2 63 -14 105 -12 30 -21 67 -21 81 0
15 -7 46 -15 69 -8 23 -15 55 -15 71 0 18 -11 39 -30 59 -33 34 -36 47 -19 84
10 22 8 35 -15 86 -22 50 -29 82 -35 179 -5 87 -12 125 -24 142 -48 66 -73
107 -82 134 -8 23 -20 34 -53 45 -32 11 -44 21 -48 40 -10 46 -14 51 -26 44
-7 -5 -40 -9 -74 -11 -67 -2 -128 -32 -138 -68 -3 -11 -9 -76 -12 -145 -4 -72
-14 -148 -24 -180 -17 -53 -17 -59 3 -150 23 -110 25 -227 8 -390 -6 -63 -11
-207 -11 -320 1 -113 -3 -266 -9 -340 -10 -133 -8 -170 21 -315 5 -27 13 -93
17 -145 5 -52 12 -110 16 -128 6 -26 3 -39 -14 -62 -22 -30 -28 -69 -12 -86
16 -16 19 -113 8 -257 -8 -107 -7 -143 3 -161 8 -17 10 -51 6 -117 -18 -289
-18 -332 0 -370 13 -31 15 -46 6 -79 -6 -27 -7 -53 -1 -75 8 -28 5 -46 -15
-98 -62 -154 -69 -207 -31 -247 18 -19 28 -47 39 -110 17 -101 34 -120 106
-120 31 0 52 -5 61 -16 19 -23 175 -14 221 13 33 19 33 19 31 94 -2 96 -3 424
-2 469 1 19 -2 52 -6 72 -9 46 0 88 20 88 20 0 19 26 0 34 -15 6 -20 92 -16
276 1 25 1 68 -1 95 -4 111 0 184 14 265 13 72 13 89 2 117 -17 39 -18 136 -3
258 16 132 37 161 58 81 6 -25 11 -87 11 -139 l0 -94 50 -62 c27 -34 53 -74
56 -89 3 -15 14 -44 25 -64 11 -21 24 -59 29 -85 4 -27 17 -73 29 -103 27 -75
72 -237 111 -400 18 -74 39 -151 47 -170 8 -19 19 -68 24 -108 5 -50 17 -89
35 -120 21 -35 29 -66 35 -129 9 -102 32 -144 88 -163 22 -7 50 -10 62 -7 28
8 49 -8 49 -38 0 -30 58 -91 73 -76 17 17 45 13 64 -8 12 -14 24 -18 48 -14
27 4 39 -1 72 -31 46 -41 58 -43 92 -17 24 18 24 20 18 142 -5 118 -4 126 19
169 30 56 30 75 -1 142 -32 68 -32 110 1 166 28 47 28 64 4 177 -8 37 -8 61 1
92 6 24 9 57 5 74 -4 23 0 41 15 66 20 33 21 40 11 161 -6 73 -18 146 -28 172
-14 36 -17 74 -16 189 1 116 -2 148 -15 168 -13 20 -14 31 -5 56 6 18 12 115
13 218 3 161 1 190 -14 212 -21 32 -22 76 -2 83 12 5 13 24 8 112 -4 83 -2
119 11 161 20 67 20 133 1 187 -19 55 -10 87 21 80 39 -10 49 24 18 65 l-26
34 7 200 c7 223 8 286 7 395 -1 41 -1 95 -1 120 1 46 -14 177 -32 285 -15 89
-49 127 -127 141 -37 7 -85 26 -122 48 -70 41 -90 44 -115 16z m-821 -1496 c9
-3 16 -15 16 -26 0 -28 -34 -19 -38 10 -4 24 -2 25 22 16z m-90 -33 c28 -11
64 -83 73 -147 4 -32 -1 -52 -25 -100 -37 -73 -89 -130 -126 -140 -75 -19
-145 70 -132 168 11 84 51 150 120 200 43 31 52 33 90 19z m851 -1074 c0 -26
-20 -25 -23 2 -3 16 1 22 10 19 7 -3 13 -12 13 -21z m365 -83 c29 -25 31 -30
25 -68 -12 -68 -96 -230 -140 -266 -21 -17 -19 -38 8 -101 50 -113 66 -276 35
-334 -32 -60 -64 -85 -107 -85 -55 0 -98 47 -115 126 -11 50 22 231 55 303 16
35 29 76 29 91 0 15 7 33 16 41 26 21 42 61 49 123 10 74 68 196 95 196 10 0
33 -12 50 -26z m-177 -101 c-25 -53 -28 -56 -31 -30 -2 18 5 38 22 58 14 17
26 36 27 42 0 9 2 8 6 0 2 -7 -8 -39 -24 -70z"/>
<path d="M2825 5447 c-11 -6 -63 -15 -115 -19 -158 -12 -183 -18 -213 -47 -22
-20 -37 -26 -71 -24 -37 1 -45 -2 -58 -25 -9 -15 -19 -61 -23 -102 -3 -41 -13
-104 -22 -140 -12 -53 -13 -75 -3 -115 9 -40 9 -58 -3 -90 -11 -33 -12 -48 -1
-90 22 -91 23 -142 3 -182 -15 -30 -19 -60 -19 -158 0 -66 -5 -163 -10 -215
-7 -69 -6 -104 3 -128 10 -28 9 -38 -6 -64 -12 -20 -15 -41 -11 -66 4 -24 0
-47 -10 -67 -9 -16 -16 -46 -16 -65 0 -19 -7 -43 -14 -53 -9 -12 -12 -32 -9
-58 3 -23 -1 -64 -11 -100 -14 -49 -15 -66 -6 -89 15 -36 6 -64 -25 -78 -31
-14 -32 -46 -4 -66 43 -30 43 -144 0 -190 -12 -12 -21 -31 -21 -42 0 -10 -4
-25 -9 -33 -6 -10 -4 -25 6 -44 11 -23 14 -46 9 -96 -4 -36 -8 -88 -9 -116 -1
-33 -9 -60 -23 -80 -29 -40 -33 -65 -17 -97 10 -21 11 -60 4 -185 -5 -87 -7
-161 -4 -166 2 -4 -3 -31 -11 -61 -9 -29 -24 -96 -35 -147 -11 -52 -24 -107
-30 -124 -6 -16 -14 -88 -18 -160 -7 -122 -9 -131 -30 -140 -28 -12 -28 -26
-3 -151 12 -61 27 -108 40 -124 34 -42 48 -81 55 -162 5 -57 12 -81 27 -94 18
-17 21 -17 51 -1 24 13 44 16 73 11 31 -4 45 -2 57 11 10 9 28 15 44 13 36 -4
54 31 46 89 -4 30 -1 50 11 67 9 14 16 46 16 72 0 38 25 144 47 204 4 8 8 74
10 145 10 326 9 315 28 315 18 0 19 16 4 59 -9 26 -8 37 10 67 12 19 21 41 21
49 0 17 126 125 145 125 7 0 20 6 27 14 8 8 37 25 64 39 87 44 134 20 134 -68
0 -36 22 -142 45 -215 7 -25 19 -72 26 -104 6 -33 20 -77 31 -98 15 -28 18
-48 13 -77 -3 -21 -1 -59 5 -82 25 -94 29 -119 44 -258 13 -126 18 -148 38
-168 27 -27 86 -32 138 -12 53 21 57 25 63 66 5 29 18 48 56 81 46 40 50 47
56 102 7 57 5 63 -27 112 -35 56 -34 42 -27 238 2 56 -3 75 -33 140 -42 90
-56 177 -42 271 5 37 1 56 -20 101 -20 42 -24 61 -18 79 5 13 5 37 1 54 -5 16
-9 80 -8 142 0 62 -3 118 -7 124 -12 19 -35 190 -32 241 1 28 -5 55 -14 70 -8
12 -18 48 -21 78 -8 74 -33 203 -51 270 -20 70 -20 133 0 189 13 39 13 49 -2
99 -8 31 -27 78 -40 104 -16 31 -24 65 -25 100 0 29 -4 61 -8 72 -4 10 -3 39
3 65 8 42 6 54 -18 105 -24 50 -26 62 -16 86 9 22 8 40 -5 87 -13 46 -14 69
-7 96 12 43 6 104 -16 167 -11 33 -16 93 -18 228 -1 117 -6 193 -14 212 -7 17
-10 50 -7 75 2 25 1 48 -4 51 -5 3 -9 23 -9 45 0 46 -13 77 -44 101 -25 21
-34 21 -61 5z m-190 -587 c-7 -57 -6 -60 19 -71 21 -10 26 -19 26 -50 0 -46
-22 -135 -44 -177 -25 -49 -97 -102 -139 -102 -29 0 -41 7 -65 38 -51 66 -67
146 -36 190 32 46 94 82 140 82 51 0 64 16 64 82 0 42 13 68 33 68 5 0 6 -26
2 -60z m130 13 c30 -45 32 -73 6 -104 -17 -21 -21 -22 -36 -9 -26 22 -37 61
-30 108 8 53 26 54 60 5z m212 -349 c9 -27 -180 -47 -205 -22 -12 12 -17 58
-7 58 3 0 16 -7 28 -15 21 -13 28 -13 72 4 47 18 52 18 79 3 16 -10 31 -22 33
-28z m-217 -159 c0 -8 9 -24 19 -34 52 -52 93 -196 61 -216 -21 -13 -58 23
-65 64 -4 22 -13 45 -20 51 -17 14 -29 81 -20 120 7 31 25 42 25 15z m-21
-691 c12 -16 21 -42 21 -63 0 -20 10 -63 21 -96 40 -117 59 -385 33 -460 -8
-26 -13 -58 -10 -71 7 -25 -8 -64 -23 -64 -4 0 -25 12 -47 26 -31 22 -40 24
-48 12 -19 -24 -60 -48 -83 -48 -34 0 -42 27 -33 105 13 105 28 221 41 310 6
44 12 109 13 145 2 73 18 137 49 193 25 44 38 46 66 11z"/>
<path d="M2623 4735 c-7 -20 20 -50 36 -41 17 11 13 34 -9 46 -16 9 -22 8 -27
-5z"/>
<path d="M615 5321 c-7 -12 12 -24 25 -16 11 7 4 25 -10 25 -5 0 -11 -4 -15
-9z"/>
<path d="M2204 5204 c-5 -18 0 -32 17 -50 30 -32 43 -17 29 35 -12 46 -36 55
-46 15z"/>
<path d="M8196 5189 c-32 -25 -32 -62 0 -67 25 -4 42 14 54 57 7 26 6 31 -9
31 -10 0 -30 -10 -45 -21z"/>
<path d="M5494 4436 c-3 -19 -3 -40 2 -47 11 -18 34 18 34 53 0 41 -28 36 -36
-6z"/>
<path d="M4937 4244 c-11 -11 -8 -44 3 -44 15 0 24 30 13 41 -5 5 -12 6 -16 3z"/>
<path d="M1020 4061 c0 -35 47 -91 60 -71 8 13 1 41 -20 81 -16 29 -40 24 -40
-10z"/>
<path d="M1863 2913 c-8 -20 18 -95 35 -101 16 -5 17 89 0 106 -16 16 -27 15
-35 -5z"/>
<path d="M6512 2868 c-16 -16 -15 -28 3 -28 8 0 15 9 15 20 0 23 -2 24 -18 8z"/>
<path d="M6435 2771 c-20 -39 -19 -51 4 -51 20 0 31 18 31 50 0 32 -18 32 -35
1z"/>
<path d="M5545 2460 c-11 -33 16 -57 29 -25 6 17 -2 45 -14 45 -5 0 -11 -9
-15 -20z"/>
<path d="M4115 2419 c-8 -23 -1 -34 14 -24 13 8 15 45 2 45 -5 0 -13 -9 -16
-21z"/>
<path d="M4650 1824 c-74 -12 -100 -25 -119 -62 -26 -52 -69 -191 -77 -251 -7
-57 5 -80 59 -107 30 -16 61 -6 85 27 14 20 81 42 115 37 19 -3 24 4 34 47 7
28 22 58 33 67 25 20 50 78 50 114 0 41 -40 104 -66 104 -12 0 -27 7 -34 15
-12 15 -28 16 -80 9z"/>
<path d="M7906 1588 c-23 -59 -25 -103 -6 -103 27 0 55 125 31 139 -5 4 -17
-13 -25 -36z"/>
<path d="M8282 1454 c3 -18 34 -42 42 -33 3 3 3 15 -1 27 -6 26 -46 32 -41 6z"/>
<path d="M4888 1408 c-97 -21 -163 -113 -124 -173 9 -14 21 -25 27 -25 6 0 24
-11 41 -25 16 -14 37 -25 46 -25 9 0 30 -13 47 -30 26 -25 41 -30 102 -36 l71
-7 7 44 c4 24 22 80 41 124 l34 80 -37 32 c-21 18 -51 34 -68 37 -71 12 -143
13 -187 4z"/>
<path d="M1115 1290 c-20 -39 -11 -80 19 -80 43 0 57 35 34 85 -15 33 -34 32
-53 -5z"/>
<path d="M377 1263 c-11 -10 -8 -43 3 -43 12 0 31 35 23 44 -8 8 -18 8 -26 -1z"/>
<path d="M1353 1220 c-13 -5 -23 -13 -23 -18 0 -5 -11 -14 -25 -20 -32 -15
-32 -27 2 -56 26 -23 27 -26 15 -58 -13 -37 -16 -71 -6 -81 9 -9 76 27 99 55
33 38 65 86 65 98 0 13 -81 90 -95 89 -5 0 -20 -4 -32 -9z"/>
<path d="M4070 1185 c0 -8 5 -15 10 -15 6 0 10 7 10 15 0 8 -4 15 -10 15 -5 0
-10 -7 -10 -15z"/>
<path d="M1745 1151 c-5 -23 0 -46 19 -85 30 -63 38 -70 72 -62 21 6 25 12 22
38 -2 25 -9 34 -28 38 -16 4 -28 16 -34 35 -20 68 -41 82 -51 36z"/>
<path d="M1060 1151 c0 -20 13 -41 21 -35 15 9 10 44 -6 44 -8 0 -15 -4 -15
-9z"/>
<path d="M6203 1147 c-27 -12 -29 -20 -8 -37 12 -10 18 -10 30 0 16 13 20 36
8 43 -5 3 -18 0 -30 -6z"/>
<path d="M9627 1113 c-13 -12 -7 -23 13 -23 11 0 20 7 20 15 0 15 -21 21 -33
8z"/>
<path d="M10152 1031 c-8 -22 -7 -34 4 -50 36 -51 84 2 50 54 -22 33 -42 32
-54 -4z"/>
<path d="M3876 1041 c-4 -5 -2 -12 3 -15 5 -4 12 -2 15 3 4 5 2 12 -3 15 -5 4
-12 2 -15 -3z"/>
<path d="M9976 992 c-17 -20 -36 -41 -43 -45 -36 -22 15 -117 85 -155 l42 -23
0 31 c0 17 -5 40 -10 51 -8 15 -6 22 10 36 24 21 26 46 3 64 -9 8 -22 29 -30
47 -7 17 -17 32 -21 32 -4 0 -20 -17 -36 -38z"/>
<path d="M10232 910 c0 -14 2 -19 5 -12 2 6 2 18 0 25 -3 6 -5 1 -5 -13z"/>
<path d="M9670 898 c0 -12 -9 -32 -21 -44 -12 -12 -18 -27 -15 -33 10 -15 36
-1 36 19 0 10 7 26 16 35 9 8 13 22 10 30 -8 23 -26 18 -26 -7z"/>
<path d="M3214 853 c-29 -4 -43 -22 -44 -55 0 -14 86 -8 106 6 15 12 17 18 8
33 -12 20 -23 22 -70 16z"/>
<path d="M3631 834 c0 -5 -22 -20 -47 -33 -47 -22 -48 -33 -7 -45 16 -5 26 0
43 24 12 16 19 38 17 48 -3 9 -5 12 -6 6z"/>
<path d="M3633 673 c-7 -2 -13 -20 -13 -38 0 -45 32 -65 61 -39 24 22 24 46 1
67 -19 17 -28 19 -49 10z"/>
<path d="M3814 505 c-7 -17 21 -65 36 -65 13 0 13 36 0 61 -13 23 -28 25 -36
4z"/>
<path d="M3950 365 c0 -28 12 -32 30 -10 14 16 6 35 -16 35 -8 0 -14 -10 -14
-25z"/>
</g>
</svg>
