<?xml version="1.0" standalone="no"?>
<!DOCTYPE svg PUBLIC "-//W3C//DTD SVG 20010904//EN"
 "http://www.w3.org/TR/2001/REC-SVG-20010904/DTD/svg10.dtd">
<svg version="1.0" xmlns="http://www.w3.org/2000/svg"
 width="1200.000000pt" height="800.000000pt" viewBox="0 0 1200.000000 800.000000"
 preserveAspectRatio="xMidYMid meet">

<g transform="translate(0.000000,800.000000) scale(0.100000,-0.100000)"
fill="#000000" stroke="none">
<path d="M0 4000 l0 -4000 980 0 c808 0 986 2 1013 14 34 14 88 66 69 66 -6 0
-11 12 -10 28 1 15 -2 50 -7 79 -7 49 -6 52 16 56 40 7 -199 6 -566 -2 -192
-5 -351 -8 -353 -6 -2 2 1 164 7 362 6 197 13 639 15 983 2 344 6 632 9 640 6
21 55 246 63 295 3 22 12 49 19 60 6 11 15 43 19 70 4 28 9 66 12 85 7 53 35
144 46 151 5 3 14 52 20 108 10 93 14 104 34 112 27 10 504 4 879 -10 143 -6
436 -13 650 -16 215 -4 397 -7 405 -7 8 -1 29 0 45 1 22 1 26 4 15 10 -8 6
-18 7 -22 4 -5 -2 -14 0 -21 5 -13 10 -94 9 -104 -2 -12 -11 -43 -6 -43 7 0 8
9 13 22 12 22 -2 68 12 103 31 11 6 38 17 60 24 22 7 47 19 56 26 25 22 159
64 204 64 28 0 50 -7 65 -20 13 -11 26 -20 30 -20 4 0 10 -9 13 -21 3 -12 10
-18 16 -14 6 3 11 2 11 -4 0 -6 16 -25 36 -43 40 -36 84 -100 84 -122 0 -7 11
-21 24 -29 25 -17 60 -76 50 -86 -3 -3 -14 5 -24 19 l-18 24 -4 -29 c-2 -19
-11 -34 -25 -40 -25 -11 -31 -25 -10 -25 13 0 47 -35 47 -48 0 -5 -11 -19 -24
-32 l-25 -23 -7 29 c-4 16 -12 32 -17 36 -6 3 -13 34 -15 67 -2 34 -8 61 -11
61 -4 0 -20 13 -37 28 -17 17 -43 29 -63 31 -23 2 -51 17 -81 42 -35 30 -56
39 -86 41 l-39 1 45 7 45 8 -50 -2 c-36 -1 -49 -5 -47 -14 1 -8 -2 -11 -7 -8
-13 9 -80 -26 -81 -42 0 -7 -7 -15 -15 -18 -17 -7 -21 -59 -5 -69 18 -11 11
-27 -9 -20 -16 5 -19 0 -20 -27 -3 -63 -6 -83 -16 -90 -5 -4 0 -8 13 -8 24 0
30 -15 8 -23 -17 -7 -26 -53 -13 -66 7 -7 6 -15 -3 -26 -9 -11 -9 -19 -2 -28
8 -9 7 -28 -2 -67 -8 -30 -14 -47 -15 -37 -1 9 -8 17 -16 17 -11 0 -15 -12
-14 -47 0 -27 4 -57 8 -68 8 -19 8 -19 19 0 10 19 11 19 18 2 4 -10 2 -36 -5
-56 -6 -21 -11 -47 -10 -57 0 -18 1 -18 9 1 8 18 9 18 9 2 1 -10 -6 -25 -14
-34 -14 -13 -13 -17 5 -40 21 -27 18 -41 -20 -81 -26 -28 -19 -62 13 -61 12 1
51 -1 87 -5 99 -9 344 -16 557 -17 l191 0 1 -131 c1 -72 5 -136 10 -142 4 -6
3 -48 -2 -94 -8 -60 -8 -92 0 -113 7 -18 8 -31 2 -35 -6 -4 -6 -10 0 -18 6 -7
8 -15 5 -18 -3 -4 -6 -79 -7 -167 -2 -123 1 -161 11 -161 6 0 12 -5 12 -11 0
-6 -7 -9 -15 -5 -11 4 -15 -1 -15 -19 0 -21 5 -25 28 -25 l27 0 -25 -13 -25
-13 2 -299 c1 -260 3 -301 17 -311 20 -14 20 -30 1 -38 -20 -7 -19 -26 1 -26
9 0 21 13 27 29 19 50 76 43 68 -8 -2 -9 3 -12 14 -7 9 3 28 9 41 12 13 3 24
11 24 16 0 16 50 59 61 53 5 -4 9 1 9 9 0 23 17 19 23 -5 5 -17 11 -19 44 -14
21 4 47 17 58 28 21 23 56 29 62 11 2 -6 -6 -14 -19 -18 -22 -6 -23 -7 -4 -21
11 -8 27 -15 36 -15 15 0 18 18 23 133 5 130 11 167 27 167 4 0 12 -17 17 -37
5 -23 15 -38 23 -38 12 0 16 20 20 87 8 129 30 139 37 16 6 -97 11 -118 28
-118 12 0 15 17 15 93 0 50 -5 110 -10 131 -9 41 -3 58 50 138 19 29 39 42 85
59 154 57 245 98 245 111 0 5 6 8 14 8 8 0 18 9 21 20 3 11 11 20 16 20 5 0 9
6 9 14 0 8 4 16 9 18 6 2 11 26 12 55 2 48 5 54 39 76 21 13 61 32 91 43 30
10 58 22 64 26 5 4 15 8 22 8 28 0 92 35 102 56 8 18 21 24 68 29 138 17 138
17 138 55 0 29 3 35 20 33 26 -3 162 37 174 51 5 6 11 25 13 41 3 32 -5 30
183 47 24 2 31 -1 33 -19 2 -12 10 -27 18 -33 8 -7 14 -27 14 -44 0 -18 5 -37
12 -44 9 -9 9 -18 0 -37 -20 -44 -16 -48 46 -41 31 4 66 6 77 6 30 1 85 20 85
31 0 19 -29 20 -67 2 -41 -20 -75 -20 -93 1 -8 11 -4 21 15 44 34 41 76 55
104 35 20 -14 23 -13 41 10 11 13 33 30 50 37 23 9 30 18 28 34 -3 18 -11 21
-57 23 -39 1 -60 7 -74 21 -26 26 -16 39 36 47 23 3 59 13 80 22 30 13 37 21
37 44 0 15 -4 31 -10 34 -6 3 -10 17 -10 30 0 31 -12 38 -74 39 -70 1 -69 19
1 31 49 8 59 14 61 32 3 19 -4 24 -42 34 -25 6 -46 15 -46 19 0 4 -20 7 -44 8
-29 2 -51 -4 -68 -17 -14 -12 -29 -16 -37 -12 -19 12 -85 -23 -98 -52 -10 -21
-20 -25 -80 -30 -37 -4 -85 -7 -106 -7 -30 0 -40 -5 -49 -24 -8 -19 -23 -28
-61 -36 -77 -16 -174 -28 -257 -32 l-75 -3 -6 30 c-4 17 -7 54 -8 83 -1 40 2
52 14 52 9 0 20 11 25 24 10 28 22 32 110 41 78 8 100 13 100 26 0 5 -54 9
-124 9 l-124 0 -9 28 c-14 40 -6 57 35 76 34 17 35 19 18 31 -16 13 -15 14 20
21 27 5 51 2 83 -11 69 -27 90 -28 172 -11 41 8 120 18 174 22 55 3 125 13
155 20 30 8 71 14 91 14 45 0 139 21 139 31 0 13 -75 23 -175 22 l-100 -1 63
12 c54 9 66 15 78 38 17 32 30 35 54 13 16 -14 22 -13 69 10 42 22 51 31 51
53 0 15 4 42 9 60 9 30 7 35 -30 71 -21 22 -39 45 -39 51 0 6 14 24 31 39 35
33 36 64 1 69 -22 3 -47 36 -38 50 9 14 -39 61 -65 63 -47 4 -68 -1 -88 -22
-19 -21 -21 -21 -56 -5 -19 9 -35 21 -35 26 0 19 46 39 115 51 106 19 145 16
172 -16 22 -25 26 -26 94 -19 38 4 84 14 102 23 26 13 39 14 65 5 33 -10 33
-11 38 -85 3 -41 7 -92 9 -114 15 -147 17 -265 6 -279 -8 -10 -46 -16 -127
-21 -110 -7 -144 -18 -144 -45 0 -5 -10 -18 -22 -29 -21 -20 -21 -21 -2 -42
19 -21 19 -21 -3 -39 -18 -15 -50 -19 -170 -25 -145 -7 -149 -8 -179 -36 -28
-27 -36 -29 -127 -33 -102 -4 -127 -14 -127 -48 0 -17 4 -19 28 -13 15 4 56
10 92 14 36 3 74 12 85 18 17 10 26 6 62 -28 23 -21 52 -39 63 -39 26 0 142
58 153 75 4 8 23 19 43 25 30 10 38 9 53 -4 10 -9 27 -16 39 -16 12 0 22 -4
22 -10 0 -24 43 -32 119 -21 42 6 102 12 134 12 79 3 91 -11 94 -104 1 -40 7
-94 12 -122 5 -27 7 -68 5 -90 -7 -62 -26 -149 -35 -159 -4 -5 -59 -11 -121
-13 -62 -2 -119 -5 -126 -8 -9 -3 -12 -18 -10 -42 3 -37 4 -38 48 -41 61 -5
130 15 162 45 21 21 39 27 81 28 64 3 108 24 127 59 14 27 34 34 46 15 9 -15
112 -6 149 12 48 24 33 34 -54 37 -66 2 -87 -1 -101 -13 -15 -14 -21 -14 -39
-3 -12 7 -25 26 -29 43 -5 18 -16 31 -28 34 -54 10 -57 46 -8 96 19 20 34 44
32 53 -2 9 -19 27 -38 40 -53 36 -55 46 -15 90 43 48 44 70 6 83 -37 13 -31
34 15 49 40 13 54 7 54 -24 0 -43 38 -60 71 -30 10 9 50 22 90 30 41 8 81 22
93 33 12 10 37 22 56 26 40 8 70 22 70 33 0 4 -11 20 -25 36 -40 47 -32 68 18
45 27 -12 67 2 67 24 1 14 69 51 78 42 4 -3 0 -15 -7 -27 -11 -17 -11 -22 1
-29 7 -5 19 -9 26 -9 23 0 142 62 155 80 7 10 25 22 41 26 26 6 27 5 15 -14
-23 -37 0 -48 67 -32 55 13 57 13 75 -9 14 -17 19 -40 20 -85 1 -84 7 -176 14
-203 4 -18 12 -23 38 -23 57 0 151 21 185 41 18 10 41 19 51 19 31 0 120 30
136 46 23 23 19 34 -20 50 -35 14 -44 28 -25 39 22 14 10 44 -23 54 -24 8 -39
23 -54 52 l-21 40 -5 -43 c-3 -24 -4 -74 -3 -113 3 -77 -5 -95 -39 -95 -28 0
-125 49 -125 62 0 6 8 7 18 3 35 -15 63 -17 77 -5 28 23 18 40 -24 40 -43 0
-55 10 -65 55 -4 17 -11 48 -17 70 -5 22 -14 94 -18 161 -5 66 -14 130 -20
142 -6 11 -11 47 -11 80 0 63 14 85 73 110 40 17 61 15 82 -8 23 -25 33 -25
62 1 12 12 44 27 70 34 43 11 48 15 51 43 3 33 -27 103 -60 139 -28 30 -17 50
37 74 46 20 48 26 17 62 -20 23 -10 32 61 57 86 30 115 27 132 -14 8 -18 30
-49 50 -69 21 -21 35 -45 35 -60 0 -14 5 -38 10 -53 17 -45 31 -15 39 85 7 76
12 97 36 131 15 22 32 40 36 40 5 0 9 9 9 20 0 38 -31 40 -958 46 -455 3 -852
9 -882 14 -30 5 -356 10 -724 12 -503 2 -673 6 -682 15 -7 7 -14 65 -18 150
-4 76 -9 165 -12 198 -2 33 -6 114 -9 180 l-4 120 19 -94 c11 -52 23 -98 27
-102 15 -14 80 -21 88 -9 9 14 -15 209 -27 216 -4 3 -32 6 -62 7 l-54 2 -6 60
c-3 33 -13 155 -21 270 -8 116 -17 233 -20 262 -5 36 -2 53 7 60 7 4 74 8 148
8 l135 0 3 31 c2 18 11 39 21 48 17 16 19 14 25 -30 3 -26 11 -64 16 -86 l11
-39 136 3 136 3 15 44 c13 39 13 47 -2 72 -10 16 -12 30 -7 34 6 3 15 -3 20
-14 15 -27 49 -249 57 -363 3 -53 11 -103 17 -110 9 -10 44 -12 157 -8 155 5
173 13 120 51 -27 20 -82 25 -165 14 -50 -6 -50 -6 -26 12 14 10 50 23 80 29
66 14 105 2 139 -41 21 -26 25 -27 79 -20 32 4 82 6 111 6 28 -1 52 2 52 6 0
5 -10 27 -22 50 -33 62 -20 71 123 83 187 16 195 15 209 -20 15 -37 33 -38 72
-5 51 43 132 25 163 -35 15 -28 19 -30 78 -30 34 0 79 5 101 9 35 9 41 7 65
-19 35 -37 55 -42 132 -31 77 11 94 0 104 -62 4 -23 13 -55 20 -70 10 -21 11
-35 3 -58 -22 -62 16 -139 62 -124 12 4 35 0 55 -10 26 -12 40 -13 54 -6 16 9
29 4 70 -24 29 -19 57 -32 64 -29 15 5 51 61 61 92 10 31 40 24 44 -10 2 -14
12 -34 23 -44 16 -14 23 -15 45 -6 17 8 31 9 44 2 10 -5 21 -10 23 -10 2 0 7
33 10 74 5 59 3 85 -13 130 -10 31 -17 65 -15 77 10 50 55 66 76 27 7 -13 17
-26 23 -30 18 -12 83 -9 93 5 7 8 7 62 0 154 -12 170 -9 178 61 167 55 -8 72
8 65 64 -4 29 1 46 21 75 14 21 26 41 26 45 0 18 -41 39 -122 65 -48 16 -179
64 -290 108 -112 44 -246 96 -298 115 -52 19 -122 45 -155 59 -33 13 -267 101
-520 195 -253 94 -532 198 -620 232 -224 85 -486 187 -510 198 -11 5 -87 37
-170 71 -154 64 -291 118 -576 229 -67 26 -66 23 -76 231 -7 156 1 176 47 118
22 -26 31 -31 41 -22 19 15 85 -12 92 -38 7 -28 32 -33 62 -13 18 12 23 20 16
27 -14 14 -14 44 -1 52 12 8 41 -61 43 -102 0 -18 7 -35 15 -38 20 -7 22 -4
28 46 7 61 14 81 27 76 7 -2 13 -27 13 -60 1 -51 5 -61 35 -92 33 -34 59 -45
59 -25 0 20 31 9 42 -15 6 -14 15 -25 20 -25 4 0 11 0 15 0 4 0 7 39 7 87 1
58 5 88 13 90 17 6 39 -52 46 -125 9 -82 19 -98 64 -107 20 -4 48 -15 61 -26
14 -10 38 -19 54 -19 17 0 41 -9 55 -20 32 -25 43 -25 43 -2 0 14 14 21 60 31
33 7 69 11 80 8 11 -3 22 -2 25 3 3 4 20 4 39 0 31 -7 35 -5 40 16 9 36 40 48
75 30 26 -14 30 -14 35 0 9 25 26 6 26 -30 0 -17 5 -37 10 -42 13 -13 -7 -64
-23 -64 -6 0 -22 -10 -35 -22 l-24 -23 -19 25 c-50 63 -48 62 -97 57 -60 -6
-122 -28 -122 -44 0 -16 32 -33 62 -33 27 0 123 -34 142 -50 10 -7 17 -6 26 6
9 10 22 13 38 9 16 -4 31 0 43 11 28 25 48 4 29 -30 -12 -23 -10 -27 16 -50
16 -14 36 -26 44 -26 8 0 29 -9 45 -20 36 -24 58 -25 76 -4 10 13 10 27 -4 83
-19 82 -14 114 17 105 52 -16 58 -32 55 -139 l-4 -100 65 -32 c36 -18 97 -43
135 -57 39 -13 93 -32 120 -41 50 -18 75 -29 151 -70 22 -13 81 -39 130 -58
49 -20 112 -47 139 -60 90 -43 93 -43 110 0 9 21 20 46 25 55 6 10 10 31 10
48 0 23 4 30 20 30 24 0 26 -17 5 -46 -11 -16 -12 -29 -5 -55 6 -19 10 -48 10
-65 0 -33 16 -46 78 -64 32 -9 33 -8 32 18 -6 84 1 121 25 151 24 28 25 30 8
40 -10 5 -35 12 -56 16 -27 5 -37 12 -36 24 1 9 0 18 -1 21 -1 3 -3 70 -4 150
-2 110 -6 157 -20 194 -14 38 -16 64 -11 118 5 46 3 73 -4 82 -6 8 -18 37 -25
65 -12 48 -12 53 5 61 26 15 49 12 56 -5 3 -9 31 -33 62 -54 31 -21 62 -49 69
-62 22 -41 90 -82 144 -87 46 -4 51 -8 64 -38 14 -33 20 -154 8 -154 -4 0 -22
9 -41 21 -22 14 -42 19 -58 15 -20 -5 -27 -1 -40 24 -21 40 -77 69 -100 50
-19 -16 -19 -44 0 -73 8 -12 19 -56 26 -97 6 -41 20 -101 32 -133 16 -47 18
-69 12 -120 -12 -99 -10 -146 8 -164 15 -15 18 -15 38 3 24 22 21 74 -7 105
-10 11 -13 23 -8 31 5 7 7 84 5 170 -2 129 0 157 11 153 26 -11 47 -54 57
-113 5 -33 16 -73 24 -89 8 -15 18 -51 22 -78 13 -90 35 -107 73 -55 53 70 87
56 98 -42 5 -47 13 -68 33 -88 33 -34 60 -48 80 -43 23 6 81 116 81 153 0 20
6 33 18 37 9 4 23 15 30 25 15 21 51 23 99 6 29 -11 35 -10 56 10 41 39 93 21
118 -40 16 -40 26 -48 61 -48 21 0 30 -8 46 -42 11 -24 26 -63 33 -88 13 -46
56 -120 69 -120 5 0 22 -21 39 -47 34 -51 39 -97 20 -163 -11 -37 -12 -37 -45
-27 -43 13 -54 4 -61 -52 l-6 -41 50 0 c43 0 51 -3 61 -24 21 -47 147 -85 160
-48 2 7 -1 12 -6 12 -6 0 -10 23 -10 50 -1 55 2 57 55 35 l36 -15 -6 42 c-5
41 -23 64 -70 93 -11 6 -19 29 -22 61 -4 42 -1 54 15 69 26 24 25 63 -2 92
-23 25 -27 60 -14 130 8 42 8 42 -20 40 -28 -2 -29 0 -28 41 1 45 23 80 43 68
6 -4 11 -15 11 -25 0 -33 24 -44 68 -30 22 6 51 9 64 6 25 -7 48 -43 48 -77 0
-19 15 -26 70 -32 25 -3 25 -4 25 -103 0 -55 4 -105 8 -112 4 -6 25 -14 46
-18 21 -3 48 -15 60 -27 19 -17 21 -26 15 -64 -6 -40 -4 -44 14 -44 21 0 32
18 32 54 0 55 59 81 100 44 32 -28 70 -93 70 -118 0 -10 -14 -30 -30 -43 -16
-14 -30 -27 -30 -29 0 -2 19 -3 41 -2 49 2 60 15 58 69 -2 96 2 181 10 195 6
8 25 14 44 14 27 0 47 -11 96 -54 34 -29 71 -70 83 -89 27 -44 36 -51 68 -51
33 -1 98 -31 135 -64 17 -14 33 -26 37 -26 9 0 68 -123 68 -143 0 -22 41 -117
51 -117 5 0 9 -8 9 -19 0 -25 33 -33 60 -14 20 14 22 21 16 82 -4 36 -6 83 -6
103 1 55 -24 106 -54 114 -32 8 -34 34 -3 34 13 0 28 5 33 10 19 19 71 -8 89
-48 21 -45 61 -89 98 -108 25 -13 27 -19 27 -76 0 -56 3 -65 32 -95 25 -26 29
-36 20 -45 -21 -21 -14 -82 12 -107 21 -20 25 -21 39 -7 22 23 31 20 65 -19
21 -23 41 -66 59 -126 l28 -91 30 6 c16 3 42 9 57 12 23 5 35 -1 79 -45 38
-38 59 -51 81 -51 46 0 161 -31 180 -49 10 -9 23 -43 29 -76 17 -86 23 -91
103 -73 61 14 68 14 96 -3 22 -14 33 -32 42 -65 12 -44 14 -45 43 -40 36 8 83
8 108 0 13 -4 17 -17 17 -59 0 -45 3 -55 20 -60 11 -3 20 -11 20 -16 0 -5 -9
-9 -20 -9 -11 0 -20 5 -20 12 0 6 -6 3 -14 -7 -13 -18 -16 -18 -77 -2 -35 9
-78 16 -94 15 -17 0 -40 4 -50 9 -11 6 -37 13 -58 17 -20 4 -52 20 -70 36 -18
16 -44 31 -58 35 -39 9 -139 11 -139 1 0 -4 -8 -5 -17 -1 -88 37 -125 46 -169
46 -39 -1 -58 4 -85 23 -99 71 -273 146 -339 146 -25 0 -50 9 -76 29 -22 15
-80 43 -129 61 -88 32 -248 92 -293 111 -13 5 -43 9 -67 9 l-45 0 0 -40 c0
-23 -9 -59 -21 -82 -27 -53 -21 -94 24 -156 53 -73 67 -107 67 -164 0 -74 26
-120 74 -131 50 -12 123 0 147 24 19 19 19 20 -7 54 -19 25 -24 39 -16 48 6 6
19 36 30 65 24 62 65 119 97 134 17 8 31 5 63 -11 23 -12 50 -21 60 -21 31 0
42 -23 43 -89 1 -53 5 -65 29 -91 l28 -30 134 2 c123 2 135 4 162 26 18 14 32
20 38 14 5 -5 16 -49 25 -98 17 -99 33 -128 100 -179 62 -48 92 -46 137 6 l35
41 45 -22 c38 -18 46 -27 46 -49 0 -30 32 -67 49 -56 6 3 11 22 11 41 0 20 5
44 11 55 9 18 17 20 62 14 29 -4 70 -18 93 -31 48 -28 124 -33 148 -9 16 16
53 20 74 6 7 -4 28 -3 47 3 32 10 35 14 35 52 0 52 -18 104 -36 104 -8 0 -14
4 -14 10 0 11 89 8 108 -4 9 -5 12 17 12 92 0 96 -1 99 -25 110 -15 7 -34 29
-43 50 -25 53 -63 102 -94 118 -15 8 -29 23 -33 34 -4 12 -22 24 -45 31 -21 6
-47 21 -59 33 -27 29 -57 57 -86 83 -34 30 -32 67 4 104 24 24 38 29 76 29 40
0 52 -5 85 -37 21 -21 50 -46 64 -56 15 -10 35 -35 45 -56 11 -21 32 -46 46
-55 14 -9 31 -28 37 -42 6 -13 15 -24 20 -24 4 0 8 169 8 376 l0 376 -177 -7
c-98 -3 -198 -11 -223 -17 -25 -6 -91 -11 -147 -11 -84 0 -106 3 -130 19 -15
10 -35 22 -43 26 -8 4 -10 7 -3 7 12 1 6 41 -7 41 -9 0 -47 38 -87 85 -13 15
-23 34 -23 42 0 9 -12 32 -27 51 -15 20 -21 32 -15 28 7 -4 12 -1 12 8 0 15
58 76 72 76 4 0 31 15 60 34 70 44 362 123 528 143 41 4 96 18 163 39 l47 16
0 1119 0 1119 -3165 0 c-1741 0 -3165 -2 -3165 -5 0 -3 12 -33 26 -68 93 -225
144 -390 144 -463 l0 -35 -50 7 c-62 8 -68 -11 -13 -41 39 -21 63 -65 27 -50
-34 14 -114 28 -121 21 -11 -11 19 -26 50 -26 33 0 64 -15 90 -41 17 -18 17
-19 -13 -19 -25 0 -30 -4 -30 -24 0 -13 11 -34 25 -47 14 -13 33 -37 41 -52
14 -26 14 -31 0 -46 -16 -18 -15 -57 6 -138 8 -34 7 -46 -6 -64 -9 -13 -16
-34 -16 -47 0 -19 -5 -23 -22 -20 -19 2 -25 12 -31 48 -11 61 -12 82 -3 101 9
20 -29 69 -54 69 -26 0 -60 -47 -60 -82 0 -37 -19 -44 -72 -25 l-43 15 42 -1
c53 -2 60 6 44 46 -16 38 -24 194 -11 202 6 3 7 31 4 64 -6 51 -4 61 15 80 30
30 23 55 -17 61 -44 7 -76 67 -67 127 3 23 2 44 -4 47 -6 4 -8 13 -4 21 10 27
-6 60 -34 72 -15 6 -55 18 -88 26 -96 24 -114 34 -132 72 -9 19 -20 35 -24 35
-4 0 -25 18 -47 41 -35 34 -41 48 -44 87 l-3 47 -2587 3 -2588 2 0 -4000z
m4912 3806 c48 -8 113 -25 145 -39 32 -14 65 -27 74 -30 19 -6 42 -98 37 -147
-4 -44 -30 -51 -60 -15 -16 18 -29 24 -41 20 -30 -12 -18 -34 39 -71 l55 -35
-7 -57 c-8 -67 -11 -73 -22 -43 -7 18 -10 20 -25 8 -20 -14 -14 -47 9 -47 8 0
14 -4 14 -10 0 -5 -4 -10 -10 -10 -5 0 -10 -11 -10 -24 0 -14 -5 -37 -10 -52
-8 -21 -7 -31 6 -45 21 -23 6 -24 -43 -4 -19 8 -43 15 -53 15 -13 0 -17 6 -13
19 3 12 -3 24 -18 34 -21 15 -24 15 -53 -13 -16 -17 -34 -30 -39 -30 -5 0 -6
-13 -2 -30 6 -27 4 -30 -18 -30 -41 0 -58 30 -64 114 -6 82 -15 95 -72 115
-46 15 -48 15 -59 -16 -7 -20 -11 -23 -12 -10 -3 21 -5 27 -15 50 -4 10 -5 37
-1 60 5 32 4 38 -5 27 -9 -12 -9 -11 -3 5 8 20 9 40 16 173 l3 77 -47 0 c-61
0 -69 10 -21 26 32 11 81 17 218 27 11 1 59 -4 107 -12z m433 -247 c4 -6 5
-12 2 -15 -7 -7 -37 7 -37 17 0 13 27 11 35 -2z m80 -10 c4 -6 5 -13 2 -16 -8
-7 -47 7 -47 18 0 13 37 11 45 -2z m73 -34 c-7 -7 -58 8 -58 17 0 5 9 7 19 3
11 -3 23 0 27 7 6 10 9 8 12 -5 2 -10 2 -20 0 -22z m-95 -49 c49 -21 47 -36
-7 -36 -25 0 -48 -6 -55 -14 -14 -17 -4 -65 15 -73 15 -5 10 -58 -12 -116 -18
-48 -8 -115 20 -138 30 -25 13 -34 -34 -19 -45 15 -59 44 -40 80 13 24 14 71
5 216 -6 97 -6 103 15 117 14 10 29 13 39 8 9 -5 33 -16 54 -25z m1106 -92
c12 -15 21 -35 21 -44 0 -22 -31 -35 -42 -18 -6 10 -8 10 -8 -2 -1 -20 -39 29
-40 51 0 18 19 39 36 39 7 0 22 -12 33 -26z m-93 -11 c-7 -7 -26 7 -26 19 0 6
6 6 15 -2 9 -7 13 -15 11 -17z m-940 -31 c21 -13 36 -54 30 -78 -4 -15 0 -39
10 -59 13 -27 14 -38 5 -49 -15 -17 -18 -71 -7 -108 6 -21 4 -27 -12 -32 -23
-8 -72 9 -72 24 0 5 7 10 15 10 8 0 19 10 26 21 9 18 7 25 -16 47 -26 23 -27
29 -22 83 6 50 3 62 -18 93 -14 20 -25 41 -25 46 0 12 70 13 86 2z m749 -52
c10 -16 -14 -40 -41 -40 -29 0 -40 16 -24 35 14 17 56 20 65 5z m153 -38 c3
-20 0 -23 -20 -20 -15 2 -24 11 -26 26 -3 20 0 23 20 20 15 -2 24 -11 26 -26z
m-1211 -34 c-3 -8 -6 -5 -6 6 -1 11 2 17 5 13 3 -3 4 -12 1 -19z m1148 -12
c17 -1 42 -7 58 -14 22 -10 27 -18 28 -49 2 -119 8 -164 26 -195 14 -22 20
-54 22 -98 2 -75 18 -133 34 -127 7 2 12 21 12 43 0 73 36 86 82 29 15 -19 32
-35 37 -35 4 0 25 19 46 41 l38 42 18 -28 c11 -17 20 -58 25 -118 4 -51 19
-128 33 -172 31 -96 33 -131 7 -144 -14 -8 -25 -6 -44 9 -30 24 -37 25 -37 6
0 -21 -21 -31 -30 -16 -5 8 -19 11 -39 7 -32 -7 -54 13 -44 41 3 8 -2 28 -12
46 -14 26 -23 32 -55 32 -25 1 -41 -4 -44 -12 -13 -33 -66 -8 -66 30 -1 34
-43 78 -71 74 -31 -4 -39 -16 -32 -49 8 -42 -57 -105 -114 -112 -42 -5 -43 -5
-52 31 -5 21 -11 69 -13 107 l-3 70 33 -3 c35 -4 37 -1 22 29 -6 11 -21 19
-35 19 -32 0 -41 23 -39 94 2 43 8 64 22 79 16 16 18 23 8 41 -6 12 -11 67
-11 124 0 62 -4 102 -10 102 -15 0 -38 41 -28 50 4 4 35 13 68 20 33 7 65 14
70 16 6 2 21 1 35 -2 14 -3 39 -7 55 -8z m-1075 -67 c0 -4 -17 -2 -37 5 -26 9
-39 20 -41 35 -4 22 -3 22 37 -5 23 -15 41 -30 41 -35z m1943 -3 c9 -7 17 -25
17 -40 0 -28 0 -28 -90 -30 -43 -1 -45 0 -45 29 0 21 7 33 25 42 32 16 70 16
93 -1z m-2065 -50 c4 -31 -21 -36 -50 -9 -21 19 -23 34 -6 51 17 17 52 -8 56
-42z m215 -32 c6 -7 -19 -64 -28 -64 -3 0 -5 16 -5 35 0 33 16 46 33 29z
m1370 -62 c24 -21 22 -74 -3 -97 -20 -18 -21 -18 -40 1 -10 10 -26 36 -34 56
-15 35 -15 38 5 52 23 16 43 12 72 -12z m-129 -17 c-4 -8 -10 -12 -15 -9 -5 3
-6 -2 -3 -10 4 -11 0 -16 -15 -16 -12 0 -21 4 -21 9 0 25 14 41 36 41 17 0 22
-4 18 -15z m-1034 -91 c7 -18 6 -46 -3 -92 -9 -43 -16 -60 -20 -48 -12 30 -28
147 -22 157 12 18 36 9 45 -17z m118 -17 c2 -19 -1 -27 -12 -27 -17 0 -31 34
-21 50 11 18 30 5 33 -23z m362 -107 c0 -5 -4 -10 -10 -10 -5 0 -10 5 -10 10
0 6 5 10 10 10 6 0 10 -4 10 -10z m1389 -130 c11 -19 21 -60 24 -108 4 -42 14
-97 23 -122 17 -45 33 -246 25 -304 l-4 -29 -58 7 c-34 3 -61 2 -64 -4 -10
-16 -162 -88 -172 -81 -25 18 -44 67 -46 119 -2 52 0 57 21 60 27 4 28 18 2
32 -24 13 -26 38 -5 46 12 5 13 9 4 20 -9 11 -9 24 0 56 11 35 10 45 -6 75
-15 29 -16 36 -4 56 8 12 16 53 17 92 5 93 22 109 105 100 35 -4 65 -3 76 4
29 17 42 13 62 -19z m202 -96 c12 -15 27 -115 35 -239 3 -44 12 -99 20 -123
19 -58 19 -156 -2 -176 -34 -34 -104 -2 -90 42 4 12 -1 25 -14 37 -29 26 -25
62 10 93 17 15 30 36 30 47 -1 28 -24 55 -47 55 -24 0 -38 15 -46 48 -9 36 2
52 34 52 18 0 32 7 39 21 15 27 -3 49 -41 49 -24 0 -29 4 -29 25 0 31 25 81
42 87 18 7 45 -2 59 -18z m1035 -475 c3 -5 2 -19 -1 -30 -6 -19 -12 -21 -56
-15 -66 9 -81 16 -77 35 7 36 113 44 134 10z m-1086 -19 c0 -5 -2 -10 -4 -10
-3 0 -8 5 -11 10 -3 6 -1 10 4 10 6 0 11 -4 11 -10z m-60 -45 c8 -25 8 -39 0
-55 -7 -13 -9 -38 -5 -62 6 -31 4 -39 -6 -36 -7 2 -16 16 -20 31 -4 15 -14 34
-23 42 -22 23 -104 45 -140 38 -30 -6 -30 -5 14 28 25 18 61 34 80 36 19 2 36
6 39 9 2 2 14 4 27 4 17 0 25 -9 34 -35z m1850 -4 c15 -30 12 -51 -8 -51 -25
0 -42 19 -42 47 0 29 35 32 50 4z m-8231 -330 c123 -41 161 -62 213 -120 106
-118 178 -312 240 -648 18 -99 22 -154 22 -343 0 -196 -4 -246 -27 -388 -15
-90 -36 -196 -48 -235 -12 -40 -21 -73 -21 -74 2 -7 -81 -165 -110 -210 -131
-204 -255 -233 -506 -117 -40 19 -92 52 -116 74 -24 22 -48 40 -54 40 -16 0
-78 99 -106 171 -50 124 -67 222 -73 414 -8 243 24 665 68 895 44 234 113 442
158 478 10 7 33 11 59 8 39 -3 45 -1 65 26 46 64 107 71 236 29z m8635 -20
c10 -11 16 -30 14 -43 -3 -23 -3 -23 -30 7 -16 16 -28 35 -28 42 0 19 25 16
44 -6z m-3583 -51 c14 -8 19 -21 19 -53 0 -46 -16 -73 -34 -58 -6 5 -24 11
-41 13 -28 3 -30 6 -30 43 0 32 5 42 25 52 31 16 36 16 61 3z m-4304 -52 c25
-9 33 -18 34 -38 1 -14 2 -29 4 -35 1 -5 3 -35 3 -65 l2 -54 38 35 c103 97
206 140 337 138 78 -1 98 -7 203 -63 137 -73 201 -149 243 -288 30 -96 23
-254 -16 -383 -63 -211 -197 -413 -325 -492 -75 -46 -224 -65 -293 -38 -17 7
-17 4 3 -36 39 -76 108 -175 152 -219 60 -59 195 -121 262 -119 27 0 28 2 11
10 -17 8 -16 9 8 6 15 -3 27 1 27 6 0 7 4 7 12 -1 8 -8 22 -2 57 27 26 22 61
40 80 43 l33 5 -5 -43 c-6 -54 -38 -99 -90 -125 -33 -17 -59 -21 -131 -21 -50
0 -104 3 -121 6 -37 6 -146 45 -162 58 -7 5 -18 6 -24 2 -8 -4 -9 -3 -5 5 4 6
0 14 -11 18 -10 4 -42 30 -70 60 -41 40 -69 85 -123 195 l-70 143 0 -180 c0
-99 5 -223 11 -275 11 -108 12 -204 0 -246 -10 -40 -40 -42 -113 -5 -33 17
-66 31 -73 31 -10 0 -14 48 -19 213 -9 294 -9 963 -1 1385 l6 352 46 0 c26 0
62 -5 80 -12z m4577 -74 c8 -22 7 -57 -2 -71 -6 -10 -17 -9 -49 3 -33 13 -40
20 -36 38 10 42 74 64 87 30z m-239 -186 c5 -60 3 -88 -4 -88 -6 0 -13 12 -17
28 -3 15 -10 41 -14 57 -14 49 -22 144 -14 157 14 23 42 -64 49 -154z m258
-41 c2 -37 1 -70 -4 -72 -11 -7 -29 28 -29 58 0 14 -7 43 -15 67 -11 32 -12
47 -4 63 11 20 12 19 29 -14 10 -19 20 -64 23 -102z m-908 103 c3 -5 -1 -10
-10 -10 -9 0 -13 5 -10 10 3 6 8 10 10 10 2 0 7 -4 10 -10z m-1742 -80 c85
-26 120 -57 162 -141 54 -106 87 -242 121 -493 13 -93 19 -115 46 -152 17 -24
34 -44 36 -44 3 0 2 38 -2 84 -3 46 -9 153 -12 237 -3 85 -9 192 -14 238 -5
47 -7 87 -5 90 8 7 130 5 142 -2 6 -4 21 -49 33 -100 46 -197 109 -409 120
-402 4 3 6 -3 3 -14 -4 -16 42 -206 83 -341 12 -43 13 -39 9 70 -3 63 -7 262
-11 441 -6 366 -9 352 67 351 67 -1 69 -6 70 -197 1 -94 7 -300 15 -460 15
-315 20 -667 10 -683 -7 -12 -72 -8 -120 8 -24 7 -38 22 -54 55 -12 25 -22 50
-22 55 0 5 -5 21 -12 37 -6 15 -12 33 -14 40 -7 36 -47 170 -54 184 -5 9 -14
44 -21 77 -7 34 -17 58 -22 55 -6 -3 -7 -1 -3 5 6 10 -38 200 -50 211 -3 3 -3
-17 0 -44 6 -49 8 -76 22 -280 4 -55 10 -108 15 -117 6 -10 5 -18 -3 -20 -8
-3 -8 -31 2 -108 22 -185 20 -191 -65 -176 -38 7 -57 16 -61 28 -6 20 -15 104
-15 153 -1 17 -6 84 -11 150 -6 66 -10 169 -9 229 1 93 -1 107 -13 97 -11 -10
-18 -7 -31 11 -16 22 -17 20 -11 -57 3 -44 10 -159 16 -255 6 -96 15 -203 20
-237 11 -64 5 -113 -12 -113 -15 0 -71 49 -85 74 -7 11 -12 38 -13 59 0 21 -4
46 -9 56 -5 9 -10 107 -11 217 -1 109 -4 220 -7 245 l-5 47 -32 -9 c-75 -21
-193 -100 -180 -121 4 -6 2 -8 -3 -5 -6 4 -16 0 -23 -8 -10 -12 -11 -60 -3
-223 5 -114 8 -215 5 -224 -4 -18 -32 -26 -32 -9 0 5 -11 12 -24 15 -14 3 -45
25 -70 49 -36 35 -42 45 -30 53 13 8 13 58 3 379 -16 508 -16 625 -1 735 19
127 61 218 103 220 4 0 36 -9 72 -20z m1707 -40 c0 -5 -9 -10 -19 -10 -11 0
-23 5 -26 10 -4 6 5 10 19 10 14 0 26 -4 26 -10z m115 -13 c7 -6 2 -8 -15 -3
-14 3 -33 6 -43 6 -10 0 -15 5 -12 10 7 11 55 3 70 -13z m-2369 -13 c27 -15
65 -35 85 -46 48 -25 64 -44 82 -97 15 -46 12 -81 -7 -81 -6 0 -37 25 -69 56
-45 44 -63 55 -80 50 -23 -5 -117 -74 -117 -85 0 -3 -14 -22 -30 -41 -118
-138 -211 -464 -211 -740 0 -184 21 -258 94 -335 39 -40 79 -63 61 -34 -5 8
-1 8 14 0 27 -14 35 -14 26 2 -5 8 -2 8 9 -2 15 -12 22 -10 52 13 39 30 39 30
25 57 -7 13 -7 19 0 19 5 0 10 -5 10 -11 0 -6 8 -3 18 8 9 10 13 13 7 5 -7
-11 -4 -13 15 -10 17 2 25 9 24 21 -2 13 1 15 11 7 16 -14 94 98 130 188 24
60 26 72 25 258 0 107 -3 206 -6 220 -6 23 -10 26 -40 21 -131 -22 -221 -247
-169 -423 16 -56 42 -85 98 -108 57 -23 41 -52 -23 -39 -26 5 -39 -5 -27 -20
3 -4 -30 -37 -37 -37 -3 0 -6 7 -6 15 0 8 4 15 8 15 4 0 8 10 8 22 0 13 -12
28 -32 40 -33 19 -91 98 -115 155 -7 17 -16 30 -19 28 -3 -2 -12 22 -19 54
-28 127 42 302 152 382 52 38 113 39 179 4 26 -14 50 -25 53 -25 3 0 3 15 -1
34 -3 19 -3 39 0 44 4 6 32 1 73 -14 36 -13 67 -24 68 -24 13 0 8 -970 -5
-984 -5 -4 -18 -1 -31 8 -13 9 -30 16 -39 16 -27 1 -60 37 -60 65 0 27 0 26
-51 -19 -28 -25 -55 -46 -61 -46 -5 0 -7 -4 -3 -9 3 -5 -1 -15 -8 -23 -7 -7
-19 -27 -27 -43 -18 -37 -56 -43 -53 -7 2 12 -2 22 -8 22 -8 0 -8 4 -1 13 8 9
-6 12 -66 12 -84 1 -145 23 -249 92 -77 51 -147 161 -164 256 -34 204 37 620
142 829 63 124 139 218 219 269 54 35 85 35 146 3z m2419 -15 c11 -17 -1 -21
-15 -4 -8 9 -8 15 -2 15 6 0 14 -5 17 -11z m1314 -58 c24 -15 17 -131 -7 -139
-7 -2 -15 5 -19 15 -4 10 -17 26 -30 36 -25 20 -33 81 -10 90 20 9 51 7 66 -2z
m-779 -106 c-17 -20 -26 -19 -61 6 -36 25 -40 54 -6 45 14 -3 32 1 43 9 17 13
20 11 28 -15 6 -21 5 -34 -4 -45z m-1365 21 c8 -11 14 -157 19 -483 4 -257 8
-484 10 -503 18 -179 21 -289 11 -337 -6 -27 -38 -30 -89 -9 l-33 14 -12 108
c-12 118 -18 326 -26 866 -6 393 -8 381 66 368 24 -5 48 -15 54 -24z m2395
-12 c0 -28 -17 -28 -34 -1 -8 13 -7 20 4 27 20 12 30 3 30 -26z m-789 -39 c26
6 29 4 29 -19 0 -15 -8 -30 -20 -36 -17 -9 -25 -6 -50 19 -36 35 -41 57 -9 41
11 -6 33 -8 50 -5z m844 -33 c36 -27 50 -45 50 -62 0 -24 -3 -25 -50 -22 -42
3 -55 8 -77 35 -16 17 -28 37 -28 44 0 11 37 43 50 43 3 0 28 -17 55 -38z
m-2185 18 c84 -25 144 -116 208 -318 22 -69 20 -92 -9 -110 -17 -11 -26 -10
-53 8 -49 29 -57 43 -72 115 -22 105 -80 205 -119 205 -23 0 -47 -71 -60 -179
-22 -180 -1 -623 34 -689 4 -9 12 -35 16 -56 8 -50 46 -125 74 -150 20 -18 23
-18 37 -4 23 23 44 121 44 208 0 83 9 100 51 100 18 0 28 6 32 20 9 36 27 22
37 -30 1 -3 5 -22 9 -42 5 -21 5 -38 1 -38 -4 0 -8 -42 -7 -92 1 -123 -20
-186 -71 -222 -48 -33 -91 -33 -160 -1 -29 13 -54 23 -56 22 -6 -3 -76 84 -76
95 0 5 -5 6 -12 2 -7 -4 -8 -3 -4 5 4 6 -2 37 -12 69 -46 133 -60 289 -57 632
3 340 16 423 70 449 27 13 111 13 155 1z m2390 -25 c17 -31 2 -50 -29 -40 -23
7 -28 34 -9 53 17 17 23 15 38 -13z m3340 -15 c0 -11 -7 -20 -15 -20 -8 0 -15
9 -15 20 0 11 7 20 15 20 8 0 15 -9 15 -20z m-2510 -101 c0 -20 -7 -42 -15
-49 -21 -17 -67 1 -83 33 -17 35 -2 64 41 75 40 12 57 -6 57 -59z m-282 29 c5
-42 -14 -68 -49 -68 -24 0 -33 6 -44 33 -13 30 -13 33 7 50 13 11 33 17 52 15
25 -2 32 -8 34 -30z m-670 -50 c19 -19 14 -28 -15 -28 -35 0 -58 14 -49 29 9
15 49 14 64 -1z m324 -25 c52 -8 72 -32 57 -67 -7 -14 -19 -26 -26 -26 -16 0
-93 50 -112 74 -17 21 -4 39 23 31 11 -3 38 -9 58 -12z m256 -53 c3 -42 -13
-70 -40 -70 -16 0 -48 40 -48 60 0 21 56 63 75 57 6 -2 11 -23 13 -47z m185
-126 c26 -9 50 -20 53 -25 13 -22 -8 -46 -49 -55 -34 -7 -45 -16 -58 -43 -13
-27 -17 -30 -22 -17 -4 10 -7 27 -7 39 0 12 -7 35 -15 51 -18 35 -18 31 1 50
20 20 39 20 97 0z m-298 -83 c22 -5 58 -14 80 -18 30 -6 41 -13 43 -30 4 -28
-25 -37 -85 -28 -29 4 -56 2 -76 -6 -28 -12 -31 -11 -53 17 -13 16 -24 34 -24
41 0 21 32 45 54 39 12 -2 39 -9 61 -15z m365 -162 c0 -5 -7 -9 -15 -9 -9 0
-15 9 -15 21 0 18 2 19 15 9 8 -7 15 -16 15 -21z m-4613 -306 c-3 -10 -5 -4
-5 12 0 17 2 24 5 18 2 -7 2 -21 0 -30z m777 -47 c-3 -15 -8 -25 -11 -23 -2 3
-1 17 3 31 3 15 8 25 11 23 2 -3 1 -17 -3 -31z m56 -11 c0 -5 -5 -3 -10 5 -5
8 -10 20 -10 25 0 6 5 3 10 -5 5 -8 10 -19 10 -25z m-253 -7 c-3 -8 -6 -5 -6
6 -1 11 2 17 5 13 3 -3 4 -12 1 -19z m-927 2 c0 -12 -28 -25 -36 -17 -9 9 6
27 22 27 8 0 14 -5 14 -10z m-681 -27 c-3 -36 1 -45 17 -39 14 6 15 4 4 -9
-12 -15 -15 -14 -34 6 -15 15 -17 23 -8 26 6 3 12 11 12 19 0 8 3 14 6 14 3 0
4 -8 3 -17z m1251 -33 c0 -5 -5 -10 -11 -10 -5 0 -7 5 -4 10 3 6 8 10 11 10 2
0 4 -4 4 -10z m-190 -51 c0 -6 -4 -7 -10 -4 -5 3 -10 11 -10 16 0 6 5 7 10 4
6 -3 10 -11 10 -16z m-464 -4 c-8 -8 -18 -15 -22 -15 -3 0 -1 7 6 15 7 8 17
15 22 15 5 0 3 -7 -6 -15z m1214 -11 c0 -8 -4 -14 -10 -14 -5 0 -10 9 -10 21
0 11 5 17 10 14 6 -3 10 -13 10 -21z m-410 -14 c0 -5 -5 -10 -11 -10 -5 0 -7
5 -4 10 3 6 8 10 11 10 2 0 4 -4 4 -10z m-2473 -34 c-4 -9 4 -16 24 -20 28 -5
48 -30 35 -43 -3 -4 -22 1 -41 10 -33 16 -46 43 -28 60 11 11 15 8 10 -7z
m2333 10 c0 -3 -4 -8 -10 -11 -5 -3 -10 -1 -10 4 0 6 5 11 10 11 6 0 10 -2 10
-4z m-403 -42 c-3 -3 -12 -4 -19 -1 -8 3 -5 6 6 6 11 1 17 -2 13 -5z m-1817
-56 c0 -13 -23 -5 -28 10 -2 7 2 10 12 6 9 -3 16 -11 16 -16z m1520 -4 c0 -2
-7 -4 -15 -4 -8 0 -15 4 -15 10 0 5 7 7 15 4 8 -4 15 -8 15 -10z m730 6 c0 -5
-6 -10 -14 -10 -8 0 -18 5 -21 10 -3 6 3 10 14 10 12 0 21 -4 21 -10z m185
-70 c3 -5 -1 -10 -10 -10 -9 0 -13 5 -10 10 3 6 8 10 10 10 2 0 7 -4 10 -10z
m-2682 -288 c27 -24 21 -146 -8 -140 -7 2 -21 -8 -32 -21 -16 -19 -23 -22 -39
-13 -13 7 -25 7 -37 0 -10 -5 -26 -7 -35 -3 -15 5 -14 9 8 26 l25 20 -25 -3
c-17 -2 -26 -10 -28 -25 -2 -13 -8 -23 -13 -23 -6 0 -7 -9 -4 -20 4 -14 2 -20
-8 -20 -8 0 -18 -12 -22 -27 -3 -16 -15 -37 -24 -48 -18 -20 -51 -134 -51
-177 0 -13 -9 -37 -19 -54 -10 -17 -21 -48 -24 -70 -8 -67 -28 -168 -37 -189
-17 -40 -40 -131 -46 -182 -4 -29 -12 -61 -19 -70 -12 -16 -13 -15 -9 7 5 30
-9 55 -26 45 -8 -5 -10 -20 -7 -40 4 -22 -1 -45 -14 -69 -24 -45 -26 -81 -4
-72 13 5 15 0 9 -32 -4 -20 -7 -50 -7 -65 l0 -28 -20 20 c-18 17 -19 22 -6 38
13 17 13 17 -4 3 -15 -11 -18 -22 -13 -52 6 -38 -6 -53 -18 -22 -5 13 -9 14
-20 5 -8 -7 -20 -10 -27 -9 -10 2 -13 -6 -12 -24 1 -16 -3 -28 -10 -28 -7 0
-6 -4 3 -10 12 -8 10 -10 -8 -10 -23 0 -23 2 -18 69 3 38 14 102 25 143 22 79
69 283 97 418 10 47 22 87 26 88 4 2 8 13 8 25 0 12 5 29 10 37 7 11 10 -5 10
-52 0 -38 -4 -68 -10 -68 -6 0 -5 -10 2 -25 6 -14 14 -23 17 -20 3 3 4 102 3
220 -1 119 2 225 8 239 6 18 27 34 65 50 42 19 55 30 55 46 0 12 5 18 10 15 6
-3 10 0 10 8 0 22 204 188 254 207 22 8 31 6 59 -18z m6446 4 c18 -22 31 -73
42 -176 17 -159 19 -194 13 -212 -7 -23 -52 -35 -154 -42 -47 -4 -128 -12
-180 -19 l-95 -13 3 -49 c1 -28 -1 -56 -6 -63 -5 -7 -35 -14 -73 -16 -129 -8
-245 -19 -266 -27 -12 -5 -30 -25 -39 -46 -14 -34 -17 -36 -24 -17 -7 17 -50
54 -64 54 -2 0 -7 -14 -11 -31 -6 -28 -10 -30 -43 -27 l-37 3 -5 80 c-6 89 3
118 34 109 19 -6 19 -6 3 10 -18 19 -20 32 -11 89 7 41 28 50 37 15 l6 -22 26
24 c17 16 25 34 25 57 0 18 -3 33 -7 34 -5 0 -44 3 -88 5 -99 5 -112 9 -95 29
16 19 44 19 64 0 22 -23 39 -18 75 19 27 28 38 33 56 26 26 -10 167 3 210 19
17 6 51 13 78 16 34 5 47 11 47 22 0 13 -8 15 -45 10 -24 -4 -53 -12 -64 -19
-16 -10 -28 -8 -69 15 -43 23 -51 25 -62 13 -6 -8 -34 -22 -61 -31 -42 -14
-55 -15 -80 -5 -24 10 -45 10 -97 2 -135 -23 -162 -25 -177 -12 -12 10 -28 10
-79 0 -71 -13 -110 -4 -82 19 9 8 59 14 133 17 65 2 183 11 263 19 80 8 157
15 171 15 18 0 29 8 37 25 15 33 27 32 42 -5 15 -36 48 -40 76 -9 27 30 52 42
114 51 95 16 112 17 249 22 95 4 140 9 155 20 27 19 41 20 55 2z m-1391 -89
c19 -23 -2 -34 -78 -40 -116 -10 -149 7 -76 39 40 17 140 18 154 1z m-3561
-39 c-3 -8 -6 -5 -6 6 -1 11 2 17 5 13 3 -3 4 -12 1 -19z m-53 -3 c3 -8 1 -15
-4 -15 -6 0 -10 7 -10 15 0 8 2 15 4 15 2 0 6 -7 10 -15z m5157 -52 c-21 -58
-51 -72 -51 -23 0 44 17 70 44 70 l24 0 -17 -47z m-3121 7 c-19 -13 -30 -13
-30 0 0 6 10 10 23 10 18 0 19 -2 7 -10z m-3529 -43 c-13 -13 -26 -3 -16 12 3
6 11 8 17 5 6 -4 6 -10 -1 -17z m5079 -206 c0 -11 -4 -22 -9 -25 -12 -8 -34
21 -26 34 11 17 35 11 35 -9z m-100 -6 c0 -5 -19 -9 -43 -8 -56 2 -59 4 -17
13 44 9 61 8 60 -5z m-2543 -17 c-3 -8 -6 -5 -6 6 -1 11 2 17 5 13 3 -3 4 -12
1 -19z m-265 -45 c-9 -14 -10 -14 -16 5 -9 29 3 51 16 28 5 -10 5 -23 0 -33z
m295 1 c-3 -3 -12 -4 -19 -1 -8 3 -5 6 6 6 11 1 17 -2 13 -5z m167 0 c9 -3 16
-14 16 -23 0 -9 6 -23 12 -29 10 -10 10 -15 -2 -22 -23 -15 -26 -13 -49 26
-23 39 -26 48 -11 39 6 -3 10 -1 10 4 0 13 3 13 24 5z m46 -104 c0 -5 -2 -10
-4 -10 -3 0 -8 5 -11 10 -3 6 -1 10 4 10 6 0 11 -4 11 -10z m3535 0 c-3 -5
-17 -10 -31 -10 -14 0 -22 4 -19 10 3 6 17 10 31 10 14 0 22 -4 19 -10z
m-1077 -8 c18 -3 15 -26 -6 -45 -14 -12 -30 -15 -75 -10 -63 6 -92 27 -66 47
14 9 97 14 147 8z m-2424 -73 c3 -13 7 -33 10 -44 3 -11 14 -49 23 -84 13 -46
15 -65 7 -68 -13 -4 -7 -43 7 -43 5 0 8 -12 8 -27 -1 -16 -3 -21 -6 -12 -2 10
-13 19 -24 22 -13 4 -19 14 -19 34 0 38 -24 105 -35 96 -4 -5 -5 -2 -1 4 4 7
3 36 -2 65 -6 29 -8 68 -5 86 5 31 6 32 19 14 7 -10 15 -30 18 -43z m2254 44
c-2 -14 -15 -19 -52 -21 -91 -6 -130 21 -46 31 84 10 102 8 98 -10z m-717 -96
c-13 -13 -26 -3 -16 12 3 6 11 8 17 5 6 -4 6 -10 -1 -17z m13 -43 c7 -19 -1
-54 -14 -54 -9 0 -20 51 -13 62 7 13 21 9 27 -8z m1684 -50 c29 -8 28 -39 -2
-60 -18 -11 -30 -13 -43 -6 -12 7 -32 5 -68 -9 -63 -24 -75 -24 -75 0 0 25 16
37 67 50 23 6 45 16 48 21 7 11 39 13 73 4z m-268 -19 c20 -24 0 -36 -61 -39
-30 -2 -81 -8 -114 -14 -33 -7 -68 -9 -78 -6 -9 3 -40 -2 -67 -11 -54 -18
-111 -17 -117 2 -7 20 31 32 138 42 81 9 233 30 280 40 4 0 12 -6 19 -14z
m-2933 -141 c2 -13 1 -15 -4 -4 -3 8 -11 19 -17 23 -7 6 -6 7 4 4 8 -2 16 -12
17 -23z m-37 -5 c0 -5 -7 -9 -15 -9 -9 0 -12 6 -9 15 6 15 24 11 24 -6z m90
-52 c0 -33 -25 -12 -28 24 -2 32 -1 33 13 15 8 -11 15 -28 15 -39z m14 -45 c9
-15 18 -87 10 -79 -13 12 -33 87 -24 87 5 0 11 -3 14 -8z m-3164 -93 c0 -6 -5
-7 -11 -3 -9 5 -10 -2 -6 -22 3 -16 4 -23 1 -16 -8 17 -24 5 -24 -19 0 -11 -7
-27 -15 -35 -19 -19 -19 -12 0 50 15 49 31 70 47 60 4 -3 8 -10 8 -15z m5250
-116 c10 -10 -32 -31 -73 -36 -51 -7 -134 -3 -144 7 -12 12 19 26 62 27 22 0
51 5 65 9 23 8 79 3 90 -7z m-5425 -53 c-3 -5 -10 -10 -16 -10 -5 0 -9 5 -9
10 0 6 7 10 16 10 8 0 12 -4 9 -10z m5435 -16 c24 -28 -9 -44 -109 -54 -106
-11 -114 -14 -106 -41 8 -24 -15 -34 -115 -53 -78 -15 -94 -11 -88 20 2 15 14
20 48 22 25 2 49 7 55 13 5 5 20 9 35 9 38 0 57 15 42 33 -9 11 -22 13 -45 8
-49 -12 -130 -8 -134 6 -3 7 6 14 19 17 13 2 47 9 76 15 39 8 65 8 98 0 24 -6
58 -8 76 -5 18 4 53 11 78 15 25 5 48 9 51 10 4 0 12 -6 19 -15z m-5117 -277
c-3 -242 -13 -428 -20 -394 -3 9 -9 15 -14 12 -14 -9 -11 -35 6 -51 21 -22 23
-514 1 -514 -31 0 -35 -105 -6 -143 20 -26 28 -77 11 -77 -5 0 -12 9 -16 19
-7 23 -32 34 -41 19 -4 -6 -6 -50 -5 -99 l2 -89 -43 16 c-23 8 -66 26 -95 39
-28 14 -56 25 -60 25 -5 0 -30 13 -56 30 -32 20 -45 34 -41 45 3 8 1 15 -5 15
-6 0 -11 -6 -11 -14 0 -8 -8 -13 -17 -12 -15 2 -17 30 -18 292 -1 371 11 1054
20 1076 8 20 33 24 220 39 83 6 157 15 165 19 8 5 17 4 21 -1 3 -6 4 -119 2
-252z m3222 -74 c-1 -16 -3 -45 -3 -66 -2 -44 -27 -47 -27 -4 1 31 -7 34 -30
10 -14 -14 -18 -14 -26 -2 -9 15 20 49 54 62 9 3 17 11 17 17 0 5 4 10 9 10 4
0 7 -12 6 -27z m-38 -168 c-27 -54 -39 -57 -35 -7 3 39 13 52 40 52 15 0 15
-4 -5 -45z m104 -918 c-13 -13 -26 -3 -16 12 3 6 11 8 17 5 6 -4 6 -10 -1 -17z
m-3441 -227 c0 -5 -5 -10 -11 -10 -5 0 -7 5 -4 10 3 6 8 10 11 10 2 0 4 -4 4
-10z m106 -36 c13 -3 24 -12 24 -20 0 -8 7 -14 15 -14 8 0 15 -6 15 -14 0 -11
-6 -11 -35 2 -19 9 -35 23 -35 32 0 13 -1 13 -10 0 -6 -10 -10 -11 -10 -2 0 6
-7 12 -16 12 -8 0 -12 5 -9 11 4 6 14 8 22 5 8 -4 26 -9 39 -12z m364 -101 c0
-34 -12 -63 -26 -63 -8 0 -14 -9 -14 -20 0 -11 -6 -20 -14 -20 -8 0 -16 -6
-19 -12 -2 -7 -10 7 -17 32 -6 25 -16 55 -20 67 -11 26 -2 31 63 32 38 1 47
-2 47 -16z"/>
<path d="M4685 7604 c-16 -39 -18 -68 -9 -126 6 -37 24 -54 24 -23 0 8 4 15 9
15 5 0 15 17 22 38 6 20 16 42 20 48 19 24 -8 84 -37 84 -8 0 -21 -16 -29 -36z"/>
<path d="M4860 7619 c0 -11 6 -19 13 -17 6 1 22 -4 35 -11 18 -10 26 -10 38 0
33 28 10 46 -58 47 -21 0 -28 -5 -28 -19z"/>
<path d="M4940 7420 c0 -11 7 -20 15 -20 8 0 15 9 15 20 0 11 -7 20 -15 20 -8
0 -15 -9 -15 -20z"/>
<path d="M4985 7350 c-11 -5 -15 -9 -8 -9 6 -1 18 -4 27 -7 11 -4 16 -1 16 10
0 18 -6 19 -35 6z"/>
<path d="M6287 7023 c-12 -11 -7 -87 7 -105 22 -30 36 -21 36 25 0 72 -18 106
-43 80z"/>
<path d="M6571 6701 c-27 -28 -28 -33 -20 -72 5 -23 7 -49 4 -59 -6 -18 17
-49 38 -51 7 -1 27 -3 44 -5 46 -5 56 17 44 101 -7 46 -16 73 -33 90 -30 32
-43 31 -77 -4z"/>
<path d="M6336 6705 c4 -8 8 -15 10 -15 2 0 4 7 4 15 0 8 -4 15 -10 15 -5 0
-7 -7 -4 -15z"/>
<path d="M6330 6640 c20 -13 33 -13 25 0 -3 6 -14 10 -23 10 -15 0 -15 -2 -2
-10z"/>
<path d="M6272 6609 c2 -7 10 -15 17 -17 8 -3 12 1 9 9 -2 7 -10 15 -17 17 -8
3 -12 -1 -9 -9z"/>
<path d="M1081 5504 c-28 -25 -60 -75 -106 -167 -82 -166 -98 -228 -94 -366 4
-105 4 -105 -21 -111 -29 -7 -30 -8 -56 -310 -35 -411 6 -711 122 -886 40 -61
68 -83 111 -90 23 -4 38 4 76 37 26 23 47 47 47 54 0 6 18 35 40 65 30 41 37
56 29 67 -9 10 -8 13 5 13 9 0 23 16 32 38 26 63 74 214 83 267 5 28 15 70 21
95 44 172 27 582 -37 880 -40 188 -156 450 -199 450 -8 0 -32 -16 -53 -36z
m179 -799 c0 -8 -7 -15 -15 -15 -8 0 -15 7 -15 15 0 8 7 15 15 15 8 0 15 -7
15 -15z"/>
<path d="M2303 5366 c-184 -60 -293 -217 -363 -524 -21 -89 -16 -168 14 -262
43 -135 40 -130 87 -130 46 0 44 7 22 -79 -6 -24 -5 -24 42 -18 138 19 304
169 398 362 29 60 87 223 87 247 0 6 10 31 21 56 32 66 23 147 -27 242 -22 41
-51 83 -66 93 -35 26 -155 33 -215 13z m-356 -608 c-3 -8 -6 -5 -6 6 -1 11 2
17 5 13 3 -3 4 -12 1 -19z"/>
<path d="M3832 5137 c-12 -13 -32 -59 -43 -103 -19 -69 -22 -107 -23 -296 -1
-119 2 -219 5 -222 3 -3 32 8 63 25 45 25 71 32 117 33 42 1 59 5 59 14 0 13
-30 189 -51 297 -6 28 -13 68 -18 90 -12 63 -42 138 -66 163 l-21 23 -22 -24z"/>
<path d="M1280 3230 c0 -5 7 -7 15 -4 8 4 15 8 15 10 0 2 -7 4 -15 4 -8 0 -15
-4 -15 -10z"/>
<path d="M1141 3184 c0 -11 3 -14 6 -6 3 7 2 16 -1 19 -3 4 -6 -2 -5 -13z"/>
<path d="M1075 3170 c-3 -6 1 -7 9 -4 18 7 21 14 7 14 -6 0 -13 -4 -16 -10z"/>
<path d="M1071 3131 c-10 -6 -10 -10 -1 -16 13 -8 24 -1 19 14 -3 6 -10 7 -18
2z"/>
<path d="M1111 3094 c0 -11 3 -14 6 -6 3 7 2 16 -1 19 -3 4 -6 -2 -5 -13z"/>
<path d="M895 2486 c-11 -12 -8 -45 5 -59 4 -5 10 8 12 28 4 39 -1 49 -17 31z"/>
<path d="M7352 2947 c-15 -17 -6 -27 25 -27 18 0 24 5 21 17 -4 22 -31 28 -46
10z"/>
<path d="M7067 2933 c-10 -9 -9 -43 2 -43 5 0 11 6 14 13 6 17 -7 40 -16 30z"/>
<path d="M6951 2902 c-7 -12 -4 -34 8 -71 l17 -53 27 32 c35 41 34 64 -2 89
-35 25 -38 26 -50 3z"/>
<path d="M3936 2862 c-3 -5 1 -15 9 -22 8 -7 15 -20 16 -29 0 -9 3 -11 5 -5 6
15 -22 68 -30 56z"/>
<path d="M1042 1545 c0 -16 2 -22 5 -12 2 9 2 23 0 30 -3 6 -5 -1 -5 -18z"/>
<path d="M974 1329 c-3 -6 -1 -16 5 -22 8 -8 11 -5 11 11 0 24 -5 28 -16 11z"/>
<path d="M5680 7274 c0 -27 20 -54 41 -54 25 0 34 22 19 49 -13 25 -60 29 -60
5z"/>
<path d="M6525 6180 c3 -5 8 -10 11 -10 2 0 4 5 4 10 0 6 -5 10 -11 10 -5 0
-7 -4 -4 -10z"/>
<path d="M8504 5759 c3 -17 6 -54 6 -81 0 -46 1 -48 21 -38 22 12 28 9 82 -39
28 -26 29 -26 43 -6 24 32 28 64 14 122 -14 63 -29 73 -66 44 -35 -28 -58 -27
-72 4 -17 36 -36 32 -28 -6z"/>
<path d="M8104 5725 c13 -50 26 -74 45 -85 16 -8 22 -7 31 9 13 26 -1 63 -34
84 -36 24 -49 22 -42 -8z"/>
<path d="M9286 5691 c-7 -10 22 -37 30 -28 9 8 -3 37 -15 37 -5 0 -12 -4 -15
-9z"/>
<path d="M8335 5597 c-24 -18 -31 -19 -59 -8 -59 24 -71 24 -85 -1 -7 -13 -11
-44 -9 -68 3 -43 3 -44 68 -70 36 -15 96 -41 133 -58 38 -18 77 -32 87 -32 10
0 32 -11 48 -25 49 -41 76 -47 125 -26 l44 19 6 67 c9 94 -22 138 -68 95 -29
-27 -70 -13 -114 40 -21 25 -41 40 -55 40 -13 0 -31 9 -40 19 -26 28 -49 31
-81 8z m93 -60 c3 -12 -3 -17 -22 -17 -25 0 -35 18 -19 34 12 12 38 2 41 -17z"/>
<path d="M9448 5251 c-31 -55 -35 -83 -13 -101 24 -20 41 -5 59 49 17 52 13
101 -8 101 -6 0 -23 -22 -38 -49z"/>
<path d="M9550 5223 c-15 -19 -20 -38 -18 -66 4 -56 27 -68 64 -34 16 15 34
27 41 27 25 0 13 48 -18 74 -38 32 -43 32 -69 -1z"/>
<path d="M9711 5214 c-19 -13 -37 -28 -41 -34 -11 -18 -4 -118 11 -142 8 -13
14 -34 14 -48 0 -24 16 -50 30 -50 4 0 26 -13 50 -30 42 -29 105 -41 105 -20
0 6 -4 10 -10 10 -5 0 -10 9 -10 19 0 11 -7 27 -16 36 -10 10 -19 42 -23 79
-5 47 -14 73 -34 99 -18 24 -26 45 -23 61 7 39 -14 47 -53 20z"/>
<path d="M9310 5210 c0 -5 5 -10 11 -10 5 0 7 5 4 10 -3 6 -8 10 -11 10 -2 0
-4 -4 -4 -10z"/>
<path d="M9284 5165 c-3 -8 -2 -20 2 -27 5 -7 9 -17 9 -23 0 -5 14 -10 32 -10
26 -1 32 4 36 25 3 14 1 31 -5 38 -14 17 -67 15 -74 -3z"/>
<path d="M9556 5044 c-10 -25 -7 -34 9 -34 9 0 15 9 15 25 0 28 -15 34 -24 9z"/>
<path d="M8744 4993 c-16 -105 -10 -205 16 -268 29 -72 43 -85 89 -85 23 0 57
-13 95 -36 45 -27 67 -35 90 -31 17 3 63 11 103 18 l72 12 70 -36 c39 -20 84
-37 100 -37 22 0 37 -9 57 -35 16 -21 35 -35 48 -35 28 0 66 35 66 61 0 56 50
77 100 42 14 -10 39 -25 55 -34 39 -21 53 -77 54 -220 l1 -106 47 -71 c36 -54
53 -72 70 -72 35 0 44 29 34 122 -4 45 -4 117 0 158 5 41 13 119 19 174 10
100 5 126 -25 126 -6 0 -32 10 -56 23 -39 21 -215 88 -399 153 -36 12 -114 41
-175 63 -60 22 -135 47 -165 57 -30 9 -115 36 -188 60 -73 24 -142 44 -152 44
-15 0 -20 -10 -26 -47z m136 -229 c0 -8 -7 -14 -15 -14 -15 0 -21 21 -9 33 10
9 24 -2 24 -19z"/>
<path d="M5643 4734 c-7 -19 11 -39 26 -30 16 10 13 33 -4 40 -9 3 -18 -1 -22
-10z"/>
<path d="M7045 4702 c-68 -42 -68 -76 -1 -85 63 -9 147 3 154 21 8 22 -61 82
-95 82 -16 0 -41 -8 -58 -18z"/>
<path d="M6493 4595 c-35 -15 -38 -21 -24 -44 7 -10 32 -13 102 -12 93 1 118
9 104 31 -23 36 -124 50 -182 25z"/>
<path d="M5676 4461 c-4 -6 -3 -26 3 -44 5 -17 15 -70 21 -117 29 -204 28
-203 85 -198 27 3 30 6 29 38 -2 77 -16 131 -40 157 -21 22 -24 36 -24 94 0
49 -4 69 -12 69 -7 0 -23 3 -34 6 -12 3 -25 1 -28 -5z"/>
<path d="M5560 4430 c0 -34 10 -38 33 -12 24 26 21 42 -8 42 -21 0 -25 -5 -25
-30z"/>
<path d="M5495 4420 c-8 -27 10 -49 26 -33 13 13 8 45 -8 50 -6 2 -14 -6 -18
-17z"/>
<path d="M6020 4397 c0 -12 7 -33 16 -45 9 -13 14 -34 11 -48 -4 -25 24 -181
37 -202 4 -7 17 -12 28 -12 20 0 21 4 14 78 -3 42 -11 93 -16 112 -6 19 -10
53 -10 75 0 48 -14 65 -52 65 -22 0 -28 -4 -28 -23z"/>
<path d="M5920 4370 c0 -15 5 -20 18 -18 9 2 17 10 17 18 0 8 -8 16 -17 18
-13 2 -18 -3 -18 -18z"/>
<path d="M6247 4383 c-4 -3 -7 -18 -7 -31 0 -24 -1 -25 -20 -7 -18 17 -19 16
-26 -11 -4 -16 -14 -40 -23 -53 -14 -21 -13 -25 4 -37 31 -23 53 -17 60 17 l7
31 23 -22 c32 -30 55 -20 55 25 0 45 16 45 37 0 20 -41 33 -45 33 -10 0 13 5
36 12 51 11 23 10 28 -7 40 -25 18 -40 18 -60 -2 -15 -15 -17 -15 -34 0 -18
17 -43 21 -54 9z"/>
<path d="M6474 4328 c3 -18 8 -62 10 -97 5 -69 18 -93 38 -73 18 18 13 102
-10 155 -25 55 -46 63 -38 15z"/>
<path d="M6550 4341 c-15 -29 -12 -88 6 -123 9 -16 18 -56 21 -87 7 -67 16
-81 54 -81 23 0 29 5 29 21 0 26 -18 59 -43 80 -20 15 -20 19 -7 72 10 46 11
61 0 87 -17 42 -46 57 -60 31z"/>
<path d="M8947 4344 c-11 -11 -8 -49 5 -62 7 -7 26 -12 44 -12 17 0 45 -5 63
-11 27 -9 35 -8 51 6 11 10 20 26 20 36 0 19 -11 23 -80 33 -19 3 -49 8 -65
11 -17 4 -33 3 -38 -1z"/>
<path d="M5578 4335 c-6 -6 25 -196 36 -213 9 -14 76 -16 76 -2 0 21 -31 204
-36 212 -6 9 -67 11 -76 3z"/>
<path d="M5835 4310 c-16 -18 -16 -26 -5 -102 7 -46 17 -89 23 -95 11 -15 63
-18 71 -4 8 12 -12 129 -30 179 -17 46 -32 52 -59 22z"/>
<path d="M6744 4315 c-3 -8 -1 -67 5 -131 14 -151 36 -180 100 -135 25 18 26
23 21 73 -4 45 -8 53 -27 56 -13 2 -23 8 -23 14 0 15 -58 138 -65 138 -3 0 -8
-7 -11 -15z"/>
<path d="M6827 4313 c-7 -14 5 -93 14 -93 5 0 9 23 9 50 0 44 -11 65 -23 43z"/>
<path d="M6907 4313 c-11 -10 -8 -52 5 -76 7 -12 12 -47 13 -77 2 -99 38 -162
72 -127 16 16 1 116 -23 153 -11 15 -13 34 -8 59 5 27 2 41 -11 55 -18 20 -36
25 -48 13z"/>
<path d="M6666 4303 c-3 -3 -3 -10 0 -14 7 -12 34 -11 34 0 0 11 -26 22 -34
14z"/>
<path d="M5934 4286 c-8 -22 24 -178 38 -188 7 -4 25 -8 41 -8 24 0 27 4 27
33 0 60 -21 152 -38 165 -21 16 -61 15 -68 -2z"/>
<path d="M7760 4191 c-30 -8 -40 -48 -15 -57 27 -11 73 45 48 59 -5 2 -19 1
-33 -2z"/>
<path d="M10483 4178 c-18 -13 -35 -36 -39 -53 -3 -16 -8 -35 -9 -42 -6 -25
31 -37 108 -34 51 2 77 106 35 135 -31 22 -58 20 -95 -6z"/>
<path d="M6391 4157 c-30 -30 1 -97 47 -97 30 0 34 12 19 55 -14 41 -47 61
-66 42z"/>
<path d="M7910 4151 c0 -6 5 -13 10 -16 6 -3 10 1 10 9 0 9 -4 16 -10 16 -5 0
-10 -4 -10 -9z"/>
<path d="M6310 4119 c-15 -27 -6 -49 20 -49 11 0 23 6 26 14 6 17 -12 56 -26
56 -5 0 -14 -9 -20 -21z"/>
<path d="M6221 4116 c-16 -19 -7 -46 14 -46 22 0 30 29 13 46 -13 13 -16 13
-27 0z"/>
<path d="M6511 4099 c-10 -27 10 -52 35 -42 20 7 17 27 -6 48 -19 17 -20 17
-29 -6z"/>
<path d="M6690 4080 c0 -26 38 -47 46 -25 7 18 -12 45 -32 45 -8 0 -14 -9 -14
-20z"/>
<path d="M7405 4071 c-3 -6 -17 -8 -31 -5 -13 3 -31 1 -39 -6 -8 -6 -18 -9
-23 -6 -13 8 -46 -19 -38 -32 4 -7 32 -10 69 -8 34 1 70 -3 80 -8 14 -9 21 -7
33 8 12 17 12 23 0 40 -15 24 -41 32 -51 17z"/>
<path d="M7480 4036 c0 -9 5 -16 10 -16 6 0 10 4 10 9 0 6 -4 13 -10 16 -5 3
-10 -1 -10 -9z"/>
<path d="M8003 4022 c-51 -3 -91 -27 -62 -36 24 -7 103 -18 129 -17 14 0 67 1
118 1 72 1 92 4 92 15 0 20 -19 29 -35 15 -9 -7 -15 -8 -20 0 -3 5 -30 10 -58
10 -29 0 -66 3 -82 8 -17 4 -53 6 -82 4z"/>
<path d="M7560 4010 c0 -5 9 -10 21 -10 11 0 17 5 14 10 -3 6 -13 10 -21 10
-8 0 -14 -4 -14 -10z"/>
<path d="M7745 4010 c-12 -19 6 -30 51 -30 37 0 44 3 44 20 0 17 -7 20 -44 20
-25 0 -48 -4 -51 -10z"/>
<path d="M8404 3989 c-11 -19 10 -28 46 -20 36 7 33 14 -12 25 -15 3 -30 1
-34 -5z"/>
<path d="M6605 3870 c-4 -6 -1 -18 6 -25 17 -15 185 -29 193 -16 9 14 -23 41
-48 41 -13 0 -50 3 -83 6 -43 5 -62 3 -68 -6z"/>
<path d="M10128 3633 c-25 -27 -22 -57 6 -90 22 -25 29 -27 92 -26 56 1 71 4
85 22 10 12 26 21 37 21 29 0 186 -55 214 -74 48 -34 73 -14 84 67 11 77 3 80
-256 83 -47 0 -121 4 -165 9 -72 7 -82 6 -97 -12z"/>
<path d="M10849 3641 c-104 -8 -130 -32 -91 -82 25 -29 75 -32 170 -8 86 22
92 25 92 48 0 40 -49 52 -171 42z"/>
<path d="M8850 3622 c-21 -17 -22 -23 -15 -110 5 -65 12 -99 25 -114 17 -22
18 -22 126 -8 187 25 202 23 280 -35 8 -6 29 -1 62 14 53 25 91 23 119 -4 16
-17 89 -20 125 -6 13 5 30 21 38 36 8 15 26 33 41 41 37 19 202 36 271 29 64
-8 61 -10 88 81 16 53 10 77 -20 85 -14 4 -271 7 -571 8 -513 1 -548 0 -569
-17z"/>
<path d="M11162 3414 c-52 -36 3 -113 71 -99 85 19 114 56 72 92 -32 28 -108
31 -143 7z"/>
<path d="M11638 3343 c-9 -2 -21 -17 -28 -33 -9 -23 -9 -34 4 -59 18 -34 40
-39 74 -15 15 10 22 25 22 49 0 24 -7 39 -22 49 -12 9 -25 15 -28 15 -3 -1
-12 -3 -22 -6z"/>
<path d="M10827 3318 c-21 -7 -27 -16 -25 -32 4 -31 53 -35 68 -5 17 31 -5 50
-43 37z"/>
<path d="M9294 3285 c-15 -39 23 -59 61 -32 17 13 17 15 -6 30 -29 21 -48 22
-55 2z"/>
<path d="M9687 3264 c-10 -10 -9 -52 1 -58 5 -3 7 -18 4 -34 -3 -26 0 -30 25
-35 15 -3 34 -2 42 3 11 6 7 13 -17 30 -26 19 -29 25 -19 41 17 27 -15 74 -36
53z"/>
<path d="M8610 3151 c-15 -30 -12 -56 10 -82 20 -24 20 -24 35 -5 19 25 19 56
-1 84 -19 27 -30 28 -44 3z"/>
<path d="M10907 3124 c-110 -26 -155 -70 -124 -118 22 -33 79 -60 110 -52 87
21 166 189 88 185 -9 0 -42 -7 -74 -15z"/>
<path d="M10563 3109 c-36 -10 -45 -29 -15 -29 11 0 27 9 37 20 10 11 16 20
14 19 -2 0 -19 -5 -36 -10z"/>
<path d="M3400 3046 c0 -9 5 -16 10 -16 6 0 10 4 10 9 0 6 -4 13 -10 16 -5 3
-10 -1 -10 -9z"/>
<path d="M10394 3049 c-8 -14 11 -33 25 -25 6 4 11 11 11 16 0 13 -29 20 -36
9z"/>
<path d="M3785 3018 c0 -23 5 -34 18 -36 13 -3 17 3 17 26 0 24 -14 42 -34 42
-1 0 -2 -15 -1 -32z"/>
<path d="M3840 2980 c0 -5 5 -10 11 -10 5 0 7 5 4 10 -3 6 -8 10 -11 10 -2 0
-4 -4 -4 -10z"/>
<path d="M8372 2958 c-15 -15 -16 -72 -2 -99 13 -23 57 -25 88 -3 19 13 23 23
20 62 l-3 47 -45 3 c-26 2 -50 -2 -58 -10z"/>
<path d="M10864 2902 c-12 -2 -29 -11 -38 -21 -24 -27 -8 -227 20 -248 26 -19
41 -16 60 13 16 24 16 29 1 72 -22 60 -21 80 3 117 35 53 18 77 -46 67z"/>
<path d="M1854 2847 c-23 -20 -28 -34 -32 -86 -5 -71 3 -85 63 -111 36 -16 85
-17 488 -16 l447 1 32 34 c44 47 45 97 3 142 -54 57 -67 59 -372 57 -204 -1
-254 -3 -188 -9 50 -4 172 -7 271 -8 130 -1 191 -5 215 -15 l32 -14 -44 -4
c-24 -2 -46 -1 -49 2 -3 4 -127 10 -276 13 -262 6 -309 10 -299 27 3 4 -56 8
-129 9 -128 1 -136 0 -162 -22z"/>
<path d="M9897 2774 c-3 -3 -41 -10 -84 -15 -153 -19 -323 -79 -323 -114 0
-18 45 -52 78 -59 15 -3 60 -8 101 -10 89 -6 115 5 156 64 16 23 39 46 52 51
22 8 55 66 46 82 -5 8 -17 9 -26 1z"/>
<path d="M3320 2665 c0 -8 5 -15 10 -15 6 0 10 7 10 15 0 8 -4 15 -10 15 -5 0
-10 -7 -10 -15z"/>
<path d="M9391 2620 c-45 -7 -50 -24 -11 -40 35 -15 54 -4 48 26 -2 15 -9 18
-37 14z"/>
<path d="M11522 2601 c-21 -13 -25 -66 -7 -81 24 -20 65 5 65 40 0 41 -28 61
-58 41z"/>
<path d="M9235 2574 c-27 -8 -81 -24 -120 -36 -38 -12 -95 -24 -125 -27 l-55
-6 1 -65 c1 -84 12 -153 27 -174 10 -13 18 -14 50 -5 31 8 42 18 56 52 11 26
60 84 125 149 94 95 122 130 99 127 -5 -1 -30 -8 -58 -15z"/>
<path d="M11047 2559 c-17 -10 -47 -59 -47 -77 0 -12 89 -42 104 -36 18 7 38
61 34 91 -3 24 -8 28 -38 30 -19 2 -43 -2 -53 -8z"/>
<path d="M8490 2470 c7 -14 8 -26 0 -39 -13 -26 -13 -31 4 -31 8 0 16 8 18 18
6 31 -4 72 -18 72 -12 0 -12 -4 -4 -20z"/>
<path d="M10860 2430 c-35 -35 -22 -102 30 -152 17 -15 33 -28 37 -28 33 1 55
63 37 105 -7 17 -13 42 -14 56 0 42 -55 54 -90 19z"/>
<path d="M10635 2382 c-93 -50 -239 -155 -265 -192 -13 -18 -30 -30 -43 -30
-51 0 -91 -61 -50 -77 16 -6 43 19 68 61 9 16 15 15 64 -18 62 -42 81 -45 81
-13 0 40 22 57 93 72 57 12 73 12 106 0 56 -19 62 -8 64 122 l2 108 -25 2
c-14 1 -57 -14 -95 -35z"/>
<path d="M11083 2340 c-33 -20 -45 -50 -19 -50 8 0 17 -7 20 -16 5 -14 9 -14
22 -3 21 17 35 55 28 74 -8 19 -12 19 -51 -5z"/>
<path d="M11287 2191 c-24 -40 -19 -101 11 -141 8 -11 22 29 22 68 0 23 5 42
10 42 6 0 10 14 10 30 0 40 -30 40 -53 1z"/>
<path d="M10054 2195 c-18 -14 -18 -14 9 -15 15 0 27 4 27 9 0 18 -17 20 -36
6z"/>
<path d="M7855 2190 c-11 -5 -48 -9 -82 -9 -55 -1 -64 -4 -83 -28 -12 -15 -20
-38 -18 -52 3 -25 5 -26 68 -23 43 2 77 10 103 25 36 20 67 60 67 87 0 12 -27
12 -55 0z"/>
<path d="M7493 2098 c-26 -42 -42 -83 -35 -90 10 -10 110 8 129 23 16 14 17
51 1 67 -16 16 -85 15 -95 0z"/>
<path d="M8749 2055 c-19 -7 -53 -22 -75 -33 -21 -11 -82 -34 -134 -52 -95
-32 -320 -119 -830 -320 -151 -60 -324 -127 -385 -150 -60 -23 -180 -69 -265
-102 -85 -33 -218 -84 -295 -113 -155 -59 -330 -127 -445 -173 -41 -17 -176
-67 -300 -113 -375 -137 -584 -219 -596 -232 -10 -12 -5 -309 11 -630 l7 -137
737 2 c661 3 741 5 781 20 25 9 81 22 125 28 110 17 169 40 173 68 4 26 5 26
-47 8 -22 -8 -69 -18 -103 -22 -76 -8 -71 1 37 65 48 29 76 40 90 35 74 -24
201 -9 261 33 27 17 49 23 92 23 56 0 122 27 122 49 0 5 19 9 42 8 34 -2 43 2
46 16 3 13 -6 22 -27 30 -36 13 -40 22 -10 24 12 1 38 13 58 26 20 13 52 29
72 36 28 9 36 17 35 34 -1 15 10 27 39 43 63 34 97 38 122 14 25 -22 110 -29
130 -9 7 7 9 33 6 70 -5 46 -2 67 12 94 27 50 11 65 -63 59 l-57 -5 48 28 c53
31 69 65 44 90 -13 13 -20 14 -46 4 -34 -15 -72 -2 -49 16 7 5 27 15 45 21 24
8 36 7 53 -5 28 -20 85 -11 115 17 12 11 24 20 28 20 4 0 36 18 71 39 67 40
187 75 258 74 34 -1 38 2 50 41 10 32 21 45 52 60 l39 19 -6 74 c-4 57 -14 90
-42 147 -20 41 -44 77 -52 80 -9 4 -78 9 -153 13 -132 6 -138 5 -149 -15 -11
-20 -63 -52 -86 -52 -21 0 -46 64 -39 99 6 29 29 51 53 51 5 0 24 -12 41 -27
l32 -27 19 25 c25 33 32 56 24 86 -6 24 -8 25 -68 18 -52 -6 -66 -11 -87 -36
-18 -21 -34 -29 -58 -29 -24 0 -42 -9 -65 -31 -34 -35 -93 -59 -142 -59 -24 0
-39 -7 -53 -26 -15 -21 -33 -29 -83 -38 -55 -10 -66 -16 -77 -40 -8 -15 -19
-29 -25 -32 -25 -9 -137 -20 -137 -14 0 13 25 28 65 39 23 6 54 25 70 42 30
32 117 79 146 79 8 0 33 13 55 29 22 16 69 41 106 54 36 14 87 37 114 51 27
14 56 26 64 26 8 0 33 12 55 25 60 37 155 34 155 -6 0 -16 7 -19 43 -19 35 0
49 6 80 35 20 19 43 35 49 35 7 0 32 8 56 17 l45 17 -7 66 c-7 76 9 142 43
186 41 52 17 68 -60 39z m-61 -247 c30 -30 0 -78 -37 -58 -32 17 -21 70 14 70
6 0 16 -5 23 -12z m-733 -228 c8 -13 -12 -40 -29 -40 -6 0 -18 5 -26 10 -13 9
-12 12 4 25 23 18 42 19 51 5z m-147 -76 c4 -31 -12 -45 -54 -45 -58 -2 -64 0
-58 15 6 17 84 58 99 53 6 -2 11 -12 13 -23z m-173 -64 c10 -16 -4 -49 -26
-60 -25 -14 -108 -15 -120 -3 -11 11 11 34 56 57 34 18 81 21 90 6z m-187 -90
c6 -54 13 -70 30 -70 10 0 22 4 28 9 13 13 115 51 137 51 12 0 17 -8 17 -26 0
-51 -14 -61 -92 -69 -87 -9 -102 -15 -118 -54 -12 -31 -24 -34 -152 -43 -57
-4 -50 14 14 37 59 20 87 40 75 51 -3 4 -36 10 -72 13 -85 9 -97 21 -53 54 44
34 138 76 163 74 13 -1 21 -10 23 -27z m592 -15 c0 -37 21 -48 46 -24 20 19
25 20 59 8 52 -19 57 -30 34 -68 -21 -35 -23 -35 -104 -15 -27 7 -28 6 -21
-27 4 -19 8 -49 7 -68 0 -19 7 -47 15 -63 14 -27 13 -31 -6 -56 -11 -15 -29
-38 -39 -51 l-18 -24 -52 19 c-61 21 -71 15 -71 -49 0 -77 -34 -95 -108 -58
-53 26 -62 19 -62 -49 0 -73 -13 -86 -63 -65 -49 20 -56 19 -67 -10 -7 -18
-17 -25 -37 -25 -45 0 -56 -13 -49 -56 3 -22 7 -46 7 -54 3 -24 18 -28 61 -19
46 11 90 41 108 75 7 13 29 29 49 35 89 28 132 54 139 83 9 32 14 36 85 60 60
19 87 9 87 -33 0 -38 -16 -50 -89 -63 -54 -10 -61 -14 -61 -35 0 -34 24 -38
81 -14 54 24 79 18 79 -20 0 -19 -51 -39 -98 -39 -44 0 -61 -17 -55 -54 3 -18
1 -36 -5 -39 -5 -4 -36 -9 -68 -12 -59 -6 -59 -6 -34 12 71 52 82 65 67 80
-12 12 -28 13 -78 7 l-64 -9 -3 -37 c-4 -46 -12 -52 -92 -68 -101 -19 -100
-19 -100 -49 0 -53 21 -56 97 -17 80 42 77 41 97 20 43 -42 7 -68 -117 -84
-79 -10 -102 -23 -85 -50 6 -9 9 -24 6 -32 -8 -20 -100 -48 -156 -48 l-46 0
34 30 c19 17 52 38 73 46 20 9 37 20 37 25 0 12 -161 0 -177 -14 -7 -5 -13
-24 -13 -42 0 -53 -33 -72 -140 -81 l-90 -7 0 -46 c-1 -31 -7 -54 -21 -71 -19
-22 -32 -26 -141 -35 -115 -10 -120 -10 -134 9 -17 25 -18 75 -1 80 6 2 46 11
87 20 63 14 83 24 123 60 26 23 45 45 42 48 -3 3 -27 2 -53 -2 -78 -13 -221
-16 -224 -5 -3 9 21 19 75 30 24 5 27 10 27 45 0 45 -8 49 -88 46 -29 -1 -59
3 -67 8 -7 6 -20 45 -30 86 -23 105 -33 128 -66 151 -34 24 -39 67 -11 99 9
11 22 42 27 68 l11 47 49 2 c147 7 315 42 315 67 0 23 -11 25 -57 11 -65 -20
-169 -29 -177 -17 -9 16 69 66 142 91 58 20 65 20 93 5 33 -17 73 -14 167 12
32 9 52 20 52 29 0 17 -15 19 -56 6 -48 -16 -134 -23 -134 -12 0 6 17 19 38
30 20 11 51 31 67 45 l30 24 -52 7 c-29 4 -60 13 -70 20 -14 11 -10 17 42 50
64 41 123 64 143 58 22 -8 14 -69 -14 -103 -15 -17 -25 -32 -23 -33 2 -1 19
-10 37 -20 37 -21 94 -18 192 11 37 11 84 15 143 13 65 -2 94 1 111 13 26 16
46 6 46 -24 0 -9 5 -21 11 -27 9 -9 19 -2 42 29 28 39 29 42 11 55 -10 7 -26
13 -36 13 -32 0 -19 28 20 40 20 7 44 19 53 26 8 8 29 17 47 20 l31 6 3 -58
c4 -73 21 -80 50 -19 25 51 25 48 -28 81 -16 9 -9 16 51 46 75 37 105 35 105
-7z m228 -3 c-2 -10 -14 -18 -31 -20 -25 -3 -27 -1 -27 33 l0 36 31 -16 c19
-10 29 -22 27 -33z m216 -74 c35 -37 28 -78 -15 -78 -22 0 -30 6 -35 24 -6 26
10 66 27 66 6 0 16 -6 23 -12z m230 -14 c18 -18 20 -33 6 -54 -15 -23 -44 1
-48 39 -4 35 15 42 42 15z m-1750 -70 c22 -8 20 -73 -2 -102 -20 -26 -74 -41
-148 -42 -51 0 -92 19 -81 38 12 18 152 92 214 111 1 1 8 -2 17 -5z m-624
-449 c30 -36 -20 -80 -111 -95 -123 -19 -186 -9 -163 27 33 54 242 106 274 68z
m-730 -40 c0 -27 -89 -34 -97 -8 -4 12 20 19 70 22 18 1 27 -4 27 -14z m718
-110 c14 -31 15 -62 3 -69 -12 -8 -27 13 -35 47 -12 49 13 65 32 22z m422
-230 c0 -8 -4 -15 -9 -15 -13 0 -22 16 -14 24 11 11 23 6 23 -9z"/>
<path d="M7577 1073 c-11 -11 -8 -48 6 -66 11 -16 14 -15 31 13 10 17 15 38
12 46 -5 14 -37 19 -49 7z"/>
<path d="M7272 628 c2 -18 8 -33 13 -33 6 0 11 15 13 33 3 24 -1 32 -13 32
-12 0 -16 -8 -13 -32z"/>
<path d="M7430 559 c-25 -4 -66 -8 -91 -8 -63 -1 -80 -16 -72 -65 l6 -38 46 6
c86 12 194 81 164 105 -4 4 -28 4 -53 0z"/>
<path d="M7185 430 c-16 -4 -49 -8 -73 -9 -24 0 -52 -6 -63 -11 -34 -18 -18
-100 19 -100 29 1 95 37 135 74 55 52 50 63 -18 46z"/>
<path d="M7360 2013 c-19 -7 -40 -33 -40 -50 0 -20 44 -15 74 8 21 17 24 24
15 35 -12 15 -23 16 -49 7z"/>
<path d="M1518 1963 c7 -3 16 -2 19 1 4 3 -2 6 -13 5 -11 0 -14 -3 -6 -6z"/>
<path d="M1677 1956 c-3 -8 -16 -16 -27 -18 -21 -3 -20 -5 9 -26 28 -21 33
-21 47 -7 20 19 64 20 64 0 0 -8 -6 -12 -14 -9 -8 3 -17 1 -21 -5 -3 -6 -15
-11 -26 -11 -10 0 -19 -7 -19 -15 0 -8 7 -15 16 -15 8 0 29 -13 47 -30 33 -31
57 -39 57 -18 0 9 3 9 12 0 15 -15 112 -16 138 -2 19 10 19 11 -1 34 -17 20
-26 23 -49 16 -18 -5 -32 -4 -39 3 -21 21 -11 29 29 23 21 -3 42 -2 44 3 6 9
-94 94 -102 86 -3 -3 8 -16 24 -30 l29 -25 -32 0 c-26 0 -33 4 -33 19 0 16 -7
19 -42 19 -77 1 -88 2 -88 12 0 15 -17 12 -23 -4z m173 -78 c0 -6 -11 -7 -24
-4 -14 3 -27 2 -30 -3 -3 -5 6 -12 21 -15 18 -5 23 -10 16 -17 -15 -15 -53 7
-53 31 0 19 23 29 53 22 9 -2 17 -9 17 -14z m15 -48 c3 -5 -1 -10 -10 -10 -9
0 -13 5 -10 10 3 6 8 10 10 10 2 0 7 -4 10 -10z"/>
<path d="M3705 1940 c-3 -5 -2 -10 4 -10 6 0 8 -7 4 -16 -5 -15 -3 -15 20 1
15 9 27 21 27 26 0 12 -47 11 -55 -1z"/>
<path d="M2032 1915 c-12 -7 -25 -15 -27 -19 -3 -3 -2 -4 1 -1 4 2 15 0 24 -5
14 -8 19 -5 23 12 8 27 7 27 -21 13z"/>
<path d="M3680 1922 c0 -6 -8 -13 -17 -15 -16 -4 -16 -5 -1 -6 18 -1 34 16 24
26 -3 4 -6 1 -6 -5z"/>
<path d="M10078 1863 c-21 -14 -38 -30 -38 -34 0 -19 50 -8 75 16 48 49 24 60
-37 18z"/>
<path d="M2150 1871 c0 -17 43 -41 72 -41 21 0 26 4 21 16 -4 10 -13 14 -28
10 -12 -3 -31 1 -43 10 -12 8 -22 11 -22 5z"/>
<path d="M3660 1869 c0 -5 5 -7 10 -4 6 3 10 8 10 11 0 2 -4 4 -10 4 -5 0 -10
-5 -10 -11z"/>
<path d="M3616 1842 c-2 -4 13 -7 35 -7 21 0 39 3 39 7 0 5 -15 8 -34 8 -19 0
-37 -3 -40 -8z"/>
<path d="M2000 1836 c0 -2 7 -9 15 -16 13 -11 14 -10 9 4 -5 14 -24 23 -24 12z"/>
<path d="M3565 1830 c-24 -10 -73 -60 -58 -60 5 0 22 11 37 25 15 14 34 25 42
25 7 0 14 5 14 10 0 12 -8 12 -35 0z"/>
<path d="M1500 1802 c0 -11 -3 -33 -6 -49 -6 -29 -4 -30 48 -46 83 -25 122
-31 114 -18 -4 6 -14 11 -22 11 -18 0 -18 10 2 38 13 19 13 22 0 22 -8 0 -16
-6 -19 -12 -3 -10 -7 -10 -17 -1 -9 8 -7 12 9 18 12 3 21 11 21 16 0 12 -17
11 -25 -2 -5 -6 -12 -4 -21 8 -9 12 -13 13 -14 5 0 -7 -5 -10 -10 -7 -6 4 -8
11 -5 16 4 5 0 9 -9 9 -8 0 -21 3 -30 6 -11 4 -16 0 -16 -14z m40 -6 c0 -2 -3
-11 -6 -20 -9 -23 -24 -20 -24 4 0 11 7 20 15 20 8 0 15 -2 15 -4z"/>
<path d="M1679 1779 c-7 -21 -4 -47 6 -56 10 -9 12 -5 11 17 -1 24 -13 52 -17
39z"/>
<path d="M1886 1762 c-30 -6 -49 -30 -50 -63 -1 -16 -7 -29 -13 -29 -7 0 -13
-7 -13 -16 0 -8 4 -12 10 -9 5 3 7 0 4 -9 -10 -27 36 -82 80 -94 51 -14 77
-17 96 -9 8 3 32 11 53 17 26 8 42 21 50 38 6 15 17 34 24 43 12 14 9 21 -21
53 -38 38 -51 44 -60 24 -3 -7 -4 2 -3 21 2 34 2 34 -45 36 -34 2 -48 -2 -53
-13 -5 -13 -8 -13 -23 0 -9 8 -26 13 -36 10z m59 -50 c-3 -3 -11 0 -18 7 -9
10 -8 11 6 5 10 -3 15 -9 12 -12z m-55 -48 c0 -9 -5 -14 -12 -12 -18 6 -21 28
-4 28 9 0 16 -7 16 -16z m140 -39 c-7 -8 -16 -15 -21 -15 -5 0 -9 7 -9 15 0 9
9 15 21 15 18 0 19 -2 9 -15z"/>
<path d="M3486 1744 c-4 -9 -4 -19 -1 -22 2 -3 7 3 11 12 4 9 4 19 1 22 -2 3
-7 -3 -11 -12z"/>
<path d="M3900 1750 c0 -5 4 -10 9 -10 6 0 13 5 16 10 3 6 -1 10 -9 10 -9 0
-16 -4 -16 -10z"/>
<path d="M1725 1739 c-9 -14 -2 -20 14 -10 8 6 9 11 3 15 -6 3 -14 1 -17 -5z"/>
<path d="M9856 1730 c-16 -5 -41 -20 -55 -33 -14 -13 -66 -50 -116 -82 -115
-75 -236 -163 -252 -183 -19 -23 -16 -69 5 -77 31 -13 104 -16 118 -4 8 6 14
24 14 40 0 46 33 70 140 100 57 16 78 17 125 8 49 -9 59 -8 76 7 22 19 25 66
7 86 -53 57 -52 52 -23 102 30 51 25 55 -39 36z"/>
<path d="M3906 1708 c3 -4 0 -8 -5 -8 -6 0 -11 -4 -11 -10 0 -13 27 -2 33 14
3 7 -1 13 -9 13 -7 0 -11 -4 -8 -9z"/>
<path d="M1368 1704 c-3 -3 -3 -17 1 -32 6 -21 14 -27 38 -28 19 -1 30 3 28
10 -14 50 -16 52 -26 34 -14 -24 -33 -23 -26 2 5 19 -3 27 -15 14z"/>
<path d="M1741 1684 c0 -11 3 -14 6 -6 3 7 2 16 -1 19 -3 4 -6 -2 -5 -13z"/>
<path d="M3471 1688 c1 -7 5 -24 9 -38 7 -22 8 -21 9 13 1 20 -3 37 -9 37 -5
0 -10 -6 -9 -12z"/>
<path d="M10104 1666 c3 -48 16 -58 16 -13 0 20 -4 38 -10 42 -5 3 -8 -9 -6
-29z"/>
<path d="M1515 1660 c-3 -5 -15 -10 -26 -10 -10 0 -19 -4 -19 -9 0 -17 28 -19
55 -5 15 8 30 12 33 9 8 -7 -31 -34 -40 -29 -5 3 -8 -2 -8 -10 0 -9 -8 -16
-19 -16 -10 0 -22 -7 -25 -16 -3 -8 -10 -12 -16 -9 -5 3 -10 1 -10 -5 0 -6 -4
-8 -10 -5 -6 4 -10 -6 -10 -23 0 -16 -3 -32 -7 -36 -10 -10 -11 -76 -1 -76 4
0 10 11 14 24 l6 25 31 -20 c18 -10 40 -19 50 -19 9 0 17 -4 17 -10 0 -12 47
-13 54 -1 7 10 56 9 74 -3 15 -9 45 12 36 26 -3 5 4 27 15 49 12 22 21 46 21
55 0 28 -52 93 -83 104 -45 17 -124 23 -132 10z m30 -110 c10 -11 15 -20 12
-20 -14 0 -57 24 -57 32 0 15 27 8 45 -12z"/>
<path d="M1745 1630 c-3 -5 -1 -10 4 -10 6 0 11 5 11 10 0 6 -2 10 -4 10 -3 0
-8 -4 -11 -10z"/>
<path d="M1376 1623 c-11 -11 -6 -63 6 -63 9 0 9 -3 0 -12 -16 -16 -15 -28 1
-28 6 0 19 15 27 33 16 35 24 75 14 64 -4 -3 -14 -2 -24 3 -10 5 -20 6 -24 3z"/>
<path d="M11360 1581 c-12 -23 -7 -51 9 -51 12 0 20 46 11 61 -6 8 -11 5 -20
-10z"/>
<path d="M3799 1563 c-13 -16 -12 -17 4 -4 9 7 17 15 17 17 0 8 -8 3 -21 -13z"/>
<path d="M3530 1555 c7 -8 17 -15 22 -15 6 0 5 7 -2 15 -7 8 -17 15 -22 15 -6
0 -5 -7 2 -15z"/>
<path d="M8760 1530 c0 -5 5 -10 10 -10 6 0 10 5 10 10 0 6 -4 10 -10 10 -5 0
-10 -4 -10 -10z"/>
<path d="M3578 1523 c6 -2 18 -2 25 0 6 3 1 5 -13 5 -14 0 -19 -2 -12 -5z"/>
<path d="M3728 1523 c7 -3 16 -2 19 1 4 3 -2 6 -13 5 -11 0 -14 -3 -6 -6z"/>
<path d="M3638 1513 c12 -2 32 -2 45 0 12 2 2 4 -23 4 -25 0 -35 -2 -22 -4z"/>
<path d="M2431 1464 c0 -11 3 -14 6 -6 3 7 2 16 -1 19 -3 4 -6 -2 -5 -13z"/>
<path d="M10564 1470 c-24 -10 -74 -66 -74 -84 0 -21 10 -24 50 -14 34 9 41
16 54 56 9 25 16 47 16 49 0 5 -24 2 -46 -7z"/>
<path d="M5644 1449 c-13 -21 12 -29 64 -20 84 13 89 31 10 31 -37 0 -70 -5
-74 -11z"/>
<path d="M1862 1428 c6 -18 28 -21 28 -4 0 9 -7 16 -16 16 -9 0 -14 -5 -12
-12z"/>
<path d="M3920 1430 c0 -13 28 -25 38 -16 3 4 0 11 -8 16 -20 13 -30 12 -30 0z"/>
<path d="M1800 1399 c0 -11 5 -17 10 -14 6 3 10 13 10 21 0 8 -4 14 -10 14 -5
0 -10 -9 -10 -21z"/>
<path d="M1410 1400 c-13 -8 -13 -11 1 -26 16 -15 18 -15 37 4 11 11 18 23 15
26 -9 9 -36 7 -53 -4z"/>
<path d="M1500 1390 c0 -5 -12 -13 -27 -18 l-28 -10 33 -1 c37 -1 49 -19 32
-50 -9 -19 -8 -21 13 -21 12 0 29 -6 36 -12 11 -11 12 -8 6 12 -4 14 -12 27
-16 28 -20 8 -7 22 14 17 15 -4 28 -1 36 9 8 9 10 16 6 16 -4 0 -2 7 6 16 11
13 9 14 -13 9 -14 -4 -42 -2 -62 3 -20 6 -36 7 -36 2z m87 -26 c-3 -3 -12 -4
-19 -1 -8 3 -5 6 6 6 11 1 17 -2 13 -5z"/>
<path d="M3885 1354 c-34 -33 -45 -52 -45 -75 l0 -30 30 21 c17 12 30 26 30
33 0 8 -3 8 -12 -1 -7 -7 -19 -12 -27 -12 -26 1 69 80 95 80 15 0 22 5 18 13
-10 27 -45 15 -89 -29z"/>
<path d="M1673 1370 c18 -14 34 -19 51 -14 31 7 35 34 5 34 -15 0 -19 -5 -15
-15 3 -8 2 -15 -3 -15 -5 0 -14 7 -21 15 -7 8 -19 15 -28 15 -10 0 -6 -7 11
-20z"/>
<path d="M2918 1352 c-10 -15 -25 -38 -34 -52 -9 -14 0 -7 20 14 20 22 36 45
36 53 0 18 -3 17 -22 -15z"/>
<path d="M3973 1340 c-3 -11 -11 -20 -18 -20 -7 0 -15 -7 -19 -15 -3 -8 -1
-15 4 -15 6 0 10 5 10 10 0 22 16 8 18 -16 4 -48 19 -57 41 -23 10 17 10 23 0
29 -6 5 -12 22 -11 39 1 34 -17 42 -25 11z"/>
<path d="M5408 1338 c-7 -4 -10 -10 -6 -13 6 -7 88 12 88 21 0 7 -69 1 -82 -8z"/>
<path d="M10447 1339 c-21 -12 -23 -49 -2 -49 8 0 17 11 21 25 8 32 4 36 -19
24z"/>
<path d="M1460 1335 c0 -2 10 -10 23 -16 20 -11 21 -11 8 4 -13 16 -31 23 -31
12z"/>
<path d="M9297 1303 c-4 -3 -7 -11 -7 -17 0 -6 5 -5 12 2 6 6 9 14 7 17 -3 3
-9 2 -12 -2z"/>
<path d="M3666 1245 c-3 -8 -1 -15 4 -15 6 0 10 6 11 13 0 6 4 3 9 -8 8 -19 9
-19 9 3 1 25 -24 30 -33 7z"/>
<path d="M9105 1224 c-85 -57 -83 -81 5 -64 63 12 68 15 76 58 6 29 4 32 -18
32 -14 0 -42 -12 -63 -26z"/>
<path d="M3010 1202 c-26 -12 -39 -28 -48 -57 -18 -54 -19 -226 -1 -304 12
-54 19 -67 49 -87 60 -41 103 -26 141 49 27 52 50 179 38 215 -4 15 -18 60
-29 100 -20 66 -26 75 -56 88 -43 18 -52 18 -94 -4z m95 -98 c35 -92 1 -299
-50 -299 -29 0 -43 61 -44 183 -1 118 13 162 53 162 19 0 27 -9 41 -46z m-105
-186 c0 -5 -9 -8 -20 -8 -13 0 -20 7 -20 20 0 18 2 19 20 8 11 -7 20 -16 20
-20z m110 -138 c0 -5 -11 -10 -25 -10 -14 0 -25 5 -25 10 0 6 11 10 25 10 14
0 25 -4 25 -10z"/>
<path d="M3248 1203 l-27 -4 3 -219 c2 -120 7 -223 11 -229 3 -6 13 -11 21
-11 8 0 14 -5 14 -11 0 -5 -4 -8 -9 -5 -16 10 1 -43 20 -60 10 -9 19 -22 19
-29 0 -15 43 -55 59 -55 7 0 10 4 7 8 -6 10 21 24 71 41 32 10 57 -1 28 -13
-14 -5 -14 -9 0 -36 l16 -31 27 28 c19 19 24 31 17 39 -7 9 -12 9 -18 0 -5 -6
-7 3 -4 22 2 18 0 35 -4 37 -4 3 -5 14 -2 25 3 11 0 20 -6 20 -6 0 -11 -3 -11
-8 0 -4 -17 -13 -37 -20 -66 -22 -79 -24 -43 -4 89 48 105 60 108 80 2 15 -6
27 -28 41 -41 24 -54 44 -80 120 l-20 62 41 49 c40 48 41 51 29 82 -21 53 -38
66 -93 73 -29 3 -59 8 -67 9 -8 2 -27 1 -42 -1z m23 -52 c-7 -38 -27 -52 -37
-26 -4 10 2 26 16 40 13 14 25 24 26 22 1 -1 -1 -18 -5 -36z m89 -30 c19 -36
-11 -68 -51 -56 -14 5 -19 16 -19 41 0 31 3 34 30 34 19 0 33 -7 40 -19z m-28
-106 c-3 -17 1 -27 12 -31 9 -3 16 -10 16 -15 0 -12 -37 -11 -45 1 -3 5 -20 7
-37 3 -42 -8 -33 18 10 29 18 5 32 15 32 23 0 8 4 15 9 15 4 0 6 -11 3 -25z
m-1 -123 c6 -20 15 -41 19 -47 11 -15 18 -65 9 -59 -5 3 -9 12 -9 20 0 17 -5
17 -30 4 -17 -9 -19 -5 -25 45 -12 89 11 113 36 37z m48 -176 c-10 -9 -69 -36
-69 -32 0 7 52 35 64 36 5 0 7 -2 5 -4z m-29 -56 c-8 -5 -22 -9 -30 -9 -10 0
-8 3 5 9 27 12 43 12 25 0z m90 1 c0 -12 -63 -41 -87 -40 -10 0 4 11 32 25 58
27 55 27 55 15z"/>
<path d="M2297 1192 c-43 -4 -44 -5 -51 -82 -7 -78 -34 -260 -44 -295 -11 -37
4 -75 30 -75 21 0 38 36 38 80 0 28 30 60 56 60 7 0 20 -27 30 -60 18 -59 32
-72 52 -47 10 12 5 45 -33 219 -9 37 -18 93 -21 125 -4 32 -9 63 -13 68 -3 6
-23 9 -44 7z m1 -84 c-7 -19 -38 -22 -38 -4 0 10 9 16 21 16 12 0 19 -5 17
-12z m30 -53 c-3 -3 -9 2 -12 12 -6 14 -5 15 5 6 7 -7 10 -15 7 -18z m-2 -81
c4 -21 2 -40 -4 -46 -14 -14 -43 -3 -38 14 3 7 7 25 10 41 9 38 24 34 32 -9z"/>
<path d="M2467 1193 c-20 -3 -27 -9 -23 -21 4 -14 12 -165 21 -367 0 -22 -4
-43 -9 -47 -7 -5 -7 -11 2 -20 9 -9 12 -9 12 5 0 9 5 17 10 17 6 0 10 -4 10
-8 0 -4 16 -6 35 -4 34 4 35 5 22 26 -17 25 -27 176 -13 176 5 0 1 9 -9 20
-10 11 -24 19 -31 18 -7 -2 -13 2 -13 7 -1 6 4 10 9 9 6 -1 24 -2 41 -2 26 -2
30 -5 26 -22 -3 -11 -3 -20 0 -20 12 0 84 64 95 83 27 50 17 127 -17 127 -7 0
-15 5 -17 11 -4 11 -102 18 -151 12z m133 -62 c16 -31 12 -51 -19 -82 -46 -45
-60 -39 -60 28 0 32 3 61 5 65 10 16 63 8 74 -11z"/>
<path d="M2699 1191 c-6 -38 2 -323 10 -344 6 -16 11 -39 11 -52 0 -31 51 -59
90 -52 15 3 32 1 39 -6 8 -8 11 -8 11 1 0 7 9 25 20 40 16 22 20 49 25 146 4
93 2 117 -7 108 -7 -7 -20 -12 -30 -12 -15 0 -18 -9 -19 -47 -1 -53 -7 -117
-14 -149 -6 -27 -34 -39 -52 -21 -16 16 -35 167 -32 262 3 126 2 133 -26 133
-14 0 -25 -3 -26 -7z"/>
<path d="M2865 1190 c-18 -7 -21 -16 -18 -56 3 -79 4 -80 18 -49 l13 30 10
-24 c5 -15 11 -20 16 -13 7 12 -4 122 -13 121 -3 0 -15 -4 -26 -9z"/>
<path d="M2097 1067 c1 -68 -2 -129 -7 -136 -12 -21 -29 -4 -36 37 -4 20 -12
46 -19 57 -7 11 -22 48 -35 83 -17 48 -28 64 -47 68 -13 4 -27 3 -30 0 -5 -5
-8 -361 -4 -408 1 -5 16 -8 34 -8 l32 0 -3 100 c-1 55 1 100 5 100 8 0 54 -92
73 -146 10 -28 25 -34 58 -25 1 1 -2 9 -7 20 -17 31 -2 90 24 97 21 5 23 12
27 122 6 138 0 162 -39 162 l-28 0 2 -123z m-137 -57 c-12 -22 -25 -26 -35
-10 -9 15 4 30 26 30 17 0 18 -3 9 -20z"/>
<path d="M3780 1179 c0 -5 5 -7 10 -4 6 3 10 8 10 11 0 2 -4 4 -10 4 -5 0 -10
-5 -10 -11z"/>
<path d="M3715 1150 c-3 -6 1 -7 9 -4 18 7 21 14 7 14 -6 0 -13 -4 -16 -10z"/>
<path d="M1383 1140 c-13 -5 -23 -13 -23 -17 1 -19 18 -33 33 -27 18 7 24 -11
7 -21 -5 -3 -10 -12 -10 -18 1 -7 11 1 25 17 20 25 26 28 39 17 8 -7 21 -9 27
-5 7 4 9 3 6 -4 -4 -5 -4 -18 -1 -27 6 -15 9 -14 20 6 11 21 13 22 19 7 10
-26 28 -22 19 5 -3 12 -10 23 -14 25 -5 2 -18 12 -31 23 -12 10 -32 19 -45 19
-12 0 -28 2 -36 4 -7 3 -23 1 -35 -4z"/>
<path d="M10445 1069 c-12 -19 5 -137 21 -143 33 -12 47 91 18 132 -17 24 -29
28 -39 11z"/>
<path d="M1380 1004 c0 -8 5 -12 10 -9 6 4 8 11 5 16 -9 14 -15 11 -15 -7z"/>
<path d="M8704 1005 c-9 -22 4 -65 21 -72 18 -6 45 14 45 34 0 15 -38 52 -53
53 -4 0 -10 -7 -13 -15z"/>
<path d="M3933 980 c-28 -12 -43 -40 -43 -85 0 -50 44 -95 94 -95 l36 0 0 95
0 95 -32 -1 c-18 0 -43 -4 -55 -9z"/>
<path d="M8410 923 c-29 -6 -40 -19 -40 -50 0 -18 -9 -24 -55 -34 -59 -13 -81
-30 -71 -54 4 -10 20 -15 52 -15 40 0 51 5 78 35 39 43 111 59 132 30 12 -16
17 -16 55 -4 56 18 59 35 11 55 -22 8 -43 22 -46 30 -5 14 -60 17 -116 7z"/>
<path d="M2150 875 c0 -8 5 -15 10 -15 6 0 10 7 10 15 0 8 -4 15 -10 15 -5 0
-10 -7 -10 -15z"/>
<path d="M1720 842 c-8 -9 -15 -26 -16 -37 -2 -55 -17 -145 -24 -145 -4 0 -10
-9 -13 -21 -5 -20 -5 -20 14 -3 10 9 19 25 19 35 0 10 4 20 9 23 13 8 41 100
41 135 0 35 -8 38 -30 13z"/>
<path d="M1612 803 c-1 -23 -5 -50 -8 -60 -5 -14 -4 -15 5 -7 8 7 11 30 8 60
-3 48 -3 48 -5 7z"/>
<path d="M10752 828 c-5 -7 -15 -31 -21 -52 -5 -22 -21 -51 -35 -65 -13 -14
-27 -36 -30 -48 -12 -38 12 -35 45 7 21 25 38 38 48 35 25 -7 36 6 51 57 10
38 10 51 0 63 -15 18 -44 20 -58 3z"/>
<path d="M1854 798 c-25 -12 -79 -112 -69 -128 4 -6 -1 -21 -11 -33 -10 -12
-12 -16 -4 -9 8 6 20 12 28 12 8 0 25 11 38 25 19 21 22 30 14 50 -6 15 -6 25
0 25 11 0 41 59 32 64 -4 2 -17 -1 -28 -6z"/>
<path d="M8754 802 c-6 -4 -10 -38 -10 -77 1 -55 4 -70 16 -70 11 0 15 16 16
73 2 72 -3 87 -22 74z"/>
<path d="M2596 784 c-5 -12 0 -15 21 -12 14 2 28 9 31 16 6 18 -45 15 -52 -4z"/>
<path d="M2645 750 c-3 -5 -3 -10 2 -10 4 0 18 -3 31 -6 16 -5 22 -2 22 10 0
18 -45 23 -55 6z"/>
<path d="M8404 735 c-7 -18 3 -35 21 -35 15 0 28 27 19 41 -8 14 -34 11 -40
-6z"/>
<path d="M8630 721 c-14 -28 -13 -31 15 -31 20 0 25 5 25 25 0 30 -25 34 -40
6z"/>
<path d="M3840 687 c-32 -17 -52 -37 -67 -68 -23 -43 -30 -89 -15 -89 5 0 14
-11 20 -25 8 -16 19 -25 29 -23 12 2 18 -3 18 -16 0 -18 7 -19 70 -16 39 1 81
3 95 4 25 1 25 1 28 113 l3 112 -30 16 c-43 22 -99 19 -151 -8z m88 -109 c-2
-6 -11 -13 -19 -16 -12 -3 -12 -2 0 6 11 8 9 11 -10 15 -22 4 -22 4 4 6 18 0
27 -3 25 -11z m62 8 c0 -3 -4 -8 -10 -11 -5 -3 -10 -1 -10 4 0 6 5 11 10 11 6
0 10 -2 10 -4z"/>
<path d="M1596 685 c-3 -8 -1 -15 4 -15 6 0 10 7 10 15 0 8 -2 15 -4 15 -2 0
-6 -7 -10 -15z"/>
<path d="M8296 643 c-4 -9 -3 -20 1 -24 13 -13 37 7 30 25 -8 21 -23 20 -31
-1z"/>
<path d="M9866 620 c-48 -53 -47 -74 6 -101 24 -12 48 -29 55 -38 23 -31 53
-129 53 -173 0 -32 6 -50 20 -63 17 -16 20 -31 20 -116 0 -53 3 -104 6 -113 9
-24 41 -19 48 7 3 13 18 29 33 36 20 9 23 15 14 21 -7 4 -11 14 -9 21 3 8 -4
32 -14 53 -16 32 -19 55 -16 124 3 75 6 86 26 100 22 15 30 46 13 57 -5 3 -17
30 -25 60 -18 59 -44 85 -87 85 -30 0 -43 13 -53 53 -10 41 -46 36 -90 -13z"/>
<path d="M1393 639 c-22 -6 -30 -14 -27 -24 4 -10 12 -12 30 -5 46 18 153 12
180 -11 7 -6 19 -9 25 -7 7 2 -7 14 -31 27 -50 26 -129 35 -177 20z"/>
<path d="M8463 615 c-17 -7 -40 -26 -50 -42 -22 -34 -33 -43 -57 -43 -11 0
-34 -18 -53 -40 -22 -25 -43 -40 -58 -40 -32 0 -36 -20 -24 -103 23 -149 43
-160 46 -27 1 47 2 90 3 95 0 6 7 2 14 -8 12 -16 14 -16 20 -2 3 9 10 13 16
10 15 -10 12 -35 -5 -35 -21 0 -19 -23 3 -43 42 -38 83 -7 64 47 -17 48 -15
121 4 141 15 15 18 15 34 0 10 -9 20 -36 23 -61 6 -54 9 -58 37 -49 19 6 22
12 17 46 -3 21 1 60 9 86 25 84 19 95 -43 68z"/>
<path d="M8658 598 c-7 -18 2 -39 13 -32 12 7 12 44 0 44 -5 0 -11 -6 -13 -12z"/>
<path d="M1820 589 c0 -5 5 -7 10 -4 6 3 10 8 10 11 0 2 -4 4 -10 4 -5 0 -10
-5 -10 -11z"/>
<path d="M4737 593 c-3 -5 -2 -28 2 -53 7 -54 34 -63 39 -13 5 46 -25 93 -41
66z"/>
<path d="M3410 573 c0 -14 -6 -23 -15 -23 -8 0 -15 -4 -15 -10 0 -5 11 -10 25
-10 27 0 33 22 15 50 -8 12 -10 11 -10 -7z"/>
<path d="M4825 580 c-4 -6 -4 -63 0 -126 6 -87 11 -114 21 -114 20 0 20 222 0
239 -10 9 -16 9 -21 1z"/>
<path d="M1795 560 c4 -6 11 -8 16 -5 14 9 11 15 -7 15 -8 0 -12 -5 -9 -10z"/>
<path d="M2708 563 c7 -3 16 -2 19 1 4 3 -2 6 -13 5 -11 0 -14 -3 -6 -6z"/>
<path d="M10753 543 c-19 -7 -16 -27 7 -48 16 -15 21 -15 33 -4 14 15 11 39
-7 51 -12 9 -16 9 -33 1z"/>
<path d="M1763 525 c0 -8 4 -12 9 -9 4 3 8 9 8 15 0 5 -4 9 -8 9 -5 0 -9 -7
-9 -15z"/>
<path d="M3644 520 c-25 -10 -41 -30 -25 -30 6 0 11 5 11 10 0 14 73 13 87 -1
14 -14 45 -8 35 7 -10 16 -82 25 -108 14z"/>
<path d="M10537 483 c-35 -51 -94 -113 -107 -113 -5 0 -14 -15 -20 -34 -9 -29
-7 -43 15 -97 14 -34 25 -79 25 -98 0 -45 12 -64 42 -68 28 -3 38 3 63 42 15
23 20 47 20 105 0 67 2 75 20 78 25 5 37 22 29 42 -11 30 -32 164 -27 177 3 7
-2 13 -11 13 -9 0 -31 -21 -49 -47z"/>
<path d="M1956 495 c-50 -14 -125 -75 -92 -75 8 0 18 5 22 11 3 6 26 19 50 30
58 24 141 20 183 -11 17 -12 31 -17 31 -11 0 16 -49 49 -83 56 -18 4 -39 8
-47 10 -8 2 -37 -3 -64 -10z"/>
<path d="M4660 485 c0 -8 4 -15 9 -15 5 0 11 7 15 15 3 9 0 15 -9 15 -8 0 -15
-7 -15 -15z"/>
<path d="M8104 345 c-3 -8 0 -30 6 -50 7 -20 13 -64 14 -98 1 -48 4 -62 16
-62 19 0 26 70 10 90 -6 8 -11 33 -10 57 1 24 1 51 1 61 -1 21 -29 23 -37 2z"/>
<path d="M3733 293 c-17 -3 -22 -11 -21 -29 1 -13 7 -22 13 -20 5 3 27 10 48
17 40 13 46 23 21 33 -16 6 -24 6 -61 -1z"/>
<path d="M3888 293 c7 -3 16 -2 19 1 4 3 -2 6 -13 5 -11 0 -14 -3 -6 -6z"/>
<path d="M9673 278 c-36 -40 -37 -62 -3 -86 19 -14 30 -32 30 -47 0 -45 46
-69 90 -45 19 10 80 94 80 111 0 14 -57 46 -95 53 -18 4 -38 13 -45 21 -17 21
-33 19 -57 -7z"/>
<path d="M3225 278 c-206 -11 -195 -10 -190 -18 5 -7 -227 -150 -243 -150 -4
0 -31 -16 -59 -35 -29 -19 -55 -35 -57 -35 -3 0 -20 -9 -38 -21 l-33 -20 135
3 c120 3 139 6 175 27 22 13 60 34 85 47 50 27 80 48 80 58 0 9 -24 3 -31 -8
-4 -5 -15 -6 -25 -2 -33 13 2 28 70 31 36 1 72 8 81 15 8 7 22 10 30 6 11 -4
15 2 15 27 l0 32 19 -25 19 -24 4 29 c3 24 6 18 19 -35 20 -81 13 -90 -86
-118 -109 -32 -184 -61 -155 -62 56 0 330 105 330 127 0 7 11 20 25 29 14 9
25 23 25 30 0 8 5 14 10 14 6 0 10 -5 10 -11 0 -5 5 -7 10 -4 22 13 8 25 -29
25 -22 0 -41 -5 -44 -12 -4 -10 -7 -10 -18 0 -22 20 4 35 56 30 46 -3 46 -3
43 27 -4 36 2 36 -233 23z"/>
<path d="M3476 283 c-2 -2 2 -29 9 -58 7 -30 9 -57 6 -61 -7 -8 30 3 77 23 24
10 31 17 23 23 -9 5 -4 11 17 21 17 7 33 21 35 31 3 11 11 15 26 11 12 -3 21
-1 21 6 0 6 -17 11 -40 11 -22 0 -40 -4 -40 -10 0 -5 -7 -10 -15 -10 -8 0 -15
5 -15 10 0 10 -95 12 -104 3z"/>
<path d="M2693 263 c-86 -3 -101 -6 -96 -19 3 -8 2 -14 -3 -12 -12 4 -104 -63
-104 -75 0 -6 -3 -7 -6 -4 -4 3 -15 -5 -26 -18 -11 -14 -27 -25 -36 -25 -9 0
-27 -11 -41 -24 -15 -14 -38 -26 -53 -28 -25 -4 -57 -31 -58 -50 0 -5 27 -8
60 -8 45 0 70 6 98 23 20 12 50 28 65 35 15 7 25 17 22 22 -3 6 0 10 7 10 7 0
19 9 26 20 7 11 19 20 27 20 8 0 16 6 16 13 1 6 4 -4 8 -23 4 -21 12 -35 21
-35 18 0 31 60 17 74 -8 8 0 23 28 51 38 39 41 40 110 40 49 0 65 3 55 10 -8
5 -19 9 -25 8 -5 -1 -56 -4 -112 -5z"/>
<path d="M2869 259 c-10 -6 -7 -9 14 -9 29 0 35 5 14 13 -8 3 -20 1 -28 -4z"/>
<path d="M2936 261 c5 -6 24 -6 44 -1 l35 8 -44 1 c-28 1 -41 -3 -35 -8z"/>
<path d="M9487 207 c-29 -30 -70 -75 -93 -99 -22 -23 -58 -58 -80 -75 l-39
-33 50 3 c48 2 50 3 58 38 8 37 37 59 76 59 25 0 38 -18 46 -63 l7 -37 54 0
54 0 0 89 c0 81 -2 92 -26 120 -14 16 -25 34 -24 38 1 4 -6 10 -15 11 -10 2
-38 -19 -68 -51z"/>
<path d="M2183 243 c37 -2 97 -2 135 0 37 2 6 3 -68 3 -74 0 -105 -1 -67 -3z"/>
<path d="M4690 226 l-35 -11 -3 -87 c-1 -49 0 -88 3 -88 4 0 15 5 26 10 14 8
19 21 19 54 0 24 7 63 15 86 8 24 14 44 13 45 -2 2 -19 -2 -38 -9z"/>
<path d="M7617 213 c-12 -11 -7 -53 6 -53 31 0 57 14 57 30 0 24 -46 41 -63
23z"/>
<path d="M4750 158 c0 -48 10 -78 27 -78 23 0 14 104 -9 108 -14 3 -18 -3 -18
-30z"/>
<path d="M4537 163 c-4 -3 -7 -12 -7 -20 0 -11 4 -11 19 -1 11 7 17 16 15 20
-6 10 -18 10 -27 1z"/>
<path d="M4834 139 c3 -17 6 -56 6 -85 0 -47 3 -54 19 -54 18 0 19 6 15 73 -7
89 -9 97 -30 97 -13 0 -15 -6 -10 -31z"/>
<path d="M8710 80 l-85 -79 63 -1 c76 0 117 24 132 79 29 105 1 105 -110 1z"/>
<path d="M3218 113 c7 -3 16 -2 19 1 4 3 -2 6 -13 5 -11 0 -14 -3 -6 -6z"/>
<path d="M8004 106 c-9 -23 5 -68 19 -63 16 5 16 69 0 74 -7 3 -16 -2 -19 -11z"/>
<path d="M3056 53 c-6 -14 -5 -15 5 -6 7 7 10 15 7 18 -3 3 -9 -2 -12 -12z"/>
</g>
</svg>
